<?xml version="1.0" encoding="UTF-8"?>
<svg id="_레이어_1" data-name="레이어 1" xmlns="http://www.w3.org/2000/svg" viewBox="0 0 109.39 19.686">
  <defs>
    <style>
      .cls-1 {
        fill: #fff;
      }
    </style>
  </defs>
  <g>
    <path class="cls-1" d="M1.921,18.35c.08-.135.189-.242.327-.321.138-.078.29-.116.458-.116.128,0,.246.023.353.068.108.046.2.107.276.182s.135.158.176.249l-.325.126c-.043-.088-.107-.161-.192-.218-.085-.057-.181-.085-.288-.085-.1,0-.192.026-.274.076-.083.05-.148.117-.196.203s-.072.181-.072.286c0,.105.024.2.072.285s.113.153.196.204c.083.05.174.075.274.075.107,0,.203-.029.288-.085.085-.057.149-.129.192-.218l.325.126c-.041.09-.099.174-.176.249-.076.076-.169.136-.276.182s-.225.069-.353.069c-.167,0-.32-.039-.458-.117-.138-.078-.247-.184-.327-.32-.081-.135-.121-.285-.121-.449s.04-.314.121-.449Z"/>
    <path class="cls-1" d="M3.962,18.35c.08-.135.189-.242.327-.321.139-.078.292-.116.459-.116s.321.038.459.116c.139.079.248.185.327.321s.12.285.12.449-.04.314-.12.449-.189.242-.327.32-.292.117-.459.117-.32-.039-.459-.117-.248-.184-.327-.32-.12-.285-.12-.449.04-.314.12-.449ZM4.279,19.085c.048.085.112.153.194.204.082.05.174.075.276.075.1,0,.192-.025.275-.075.083-.051.148-.118.196-.204s.072-.181.072-.285c0-.106-.024-.201-.072-.286s-.112-.153-.194-.203-.174-.076-.276-.076c-.1,0-.192.026-.274.076-.083.05-.148.117-.196.203s-.072.181-.072.286c0,.105.024.2.072.285Z"/>
    <path class="cls-1" d="M6.086,17.937h.332v1.724h-.332v-1.724ZM6.202,17.937h.345l.652,1.601h-.303l.652-1.601h.325l-.7,1.724h-.273l-.699-1.724ZM7.657,17.937h.332v1.724h-.332v-1.724Z"/>
    <path class="cls-1" d="M8.495,17.937h.729c.125,0,.235.025.331.074.096.049.17.118.223.207.052.088.079.186.079.295,0,.11-.026.208-.078.295-.052.085-.125.153-.221.202-.096.048-.207.072-.334.072h-.377v.579h-.352v-1.724ZM9.364,18.736c.041-.022.072-.053.095-.092.022-.039.033-.084.033-.133,0-.051-.011-.096-.033-.135-.023-.039-.054-.07-.095-.093-.041-.022-.088-.033-.14-.033h-.377v.519h.377c.052,0,.099-.012.14-.034Z"/>
    <path class="cls-1" d="M10.222,17.937h.352v1.411h.796v.313h-1.147v-1.724Z"/>
    <path class="cls-1" d="M11.755,17.937h.352v1.724h-.352v-1.724Z"/>
    <path class="cls-1" d="M12.662,18.35c.08-.135.189-.242.327-.321.138-.078.29-.116.458-.116.128,0,.246.023.353.068.108.046.2.107.276.182s.135.158.176.249l-.325.126c-.043-.088-.107-.161-.192-.218-.085-.057-.181-.085-.288-.085-.1,0-.192.026-.274.076-.083.05-.148.117-.196.203s-.072.181-.072.286c0,.105.024.2.072.285s.113.153.196.204c.083.05.174.075.274.075.107,0,.203-.029.288-.085.085-.057.149-.129.192-.218l.325.126c-.041.09-.099.174-.176.249-.076.076-.169.136-.276.182s-.225.069-.353.069c-.167,0-.32-.039-.458-.117-.138-.078-.247-.184-.327-.32-.081-.135-.121-.285-.121-.449s.04-.314.121-.449Z"/>
    <path class="cls-1" d="M15.186,17.937h.389l.699,1.724h-.376l-.679-1.719h.305l-.682,1.719h-.354l.699-1.724ZM14.9,18.974h.96v.312h-.96v-.312Z"/>
    <path class="cls-1" d="M16.828,18.25h-.527v-.313h1.408v.313h-.529v1.411h-.352v-1.411Z"/>
    <path class="cls-1" d="M18.08,17.937h.352v1.724h-.352v-1.724Z"/>
    <path class="cls-1" d="M18.981,18.35c.08-.135.189-.242.327-.321.139-.078.292-.116.459-.116s.321.038.459.116c.139.079.248.185.327.321s.12.285.12.449-.04.314-.12.449-.189.242-.327.32-.292.117-.459.117-.32-.039-.459-.117-.248-.184-.327-.32-.12-.285-.12-.449.04-.314.12-.449ZM19.298,19.085c.048.085.112.153.194.204.082.05.174.075.276.075.1,0,.192-.025.275-.075.083-.051.148-.118.196-.204s.072-.181.072-.285c0-.106-.024-.201-.072-.286s-.112-.153-.194-.203-.174-.076-.276-.076c-.1,0-.192.026-.274.076-.083.05-.148.117-.196.203s-.072.181-.072.286c0,.105.024.2.072.285Z"/>
    <path class="cls-1" d="M21.104,17.937h.342l1.172,1.576-.325.099v-1.675h.352v1.724h-.342l-1.174-1.576.327-.099v1.675h-.352v-1.724Z"/>
    <path class="cls-1" d="M24.314,18.25h-.527v-.313h1.408v.313h-.529v1.411h-.352v-1.411Z"/>
    <path class="cls-1" d="M25.566,17.937h.352v.707h.798v-.707h.352v1.724h-.352v-.707h-.798v.707h-.352v-1.724Z"/>
    <path class="cls-1" d="M28.113,17.937h.389l.699,1.724h-.376l-.679-1.719h.305l-.682,1.719h-.354l.699-1.724ZM27.828,18.974h.96v.312h-.96v-.312Z"/>
    <path class="cls-1" d="M29.756,18.25h-.527v-.313h1.408v.313h-.529v1.411h-.352v-1.411Z"/>
    <path class="cls-1" d="M32.198,18.25h-.527v-.313h1.408v.313h-.529v1.411h-.352v-1.411Z"/>
    <path class="cls-1" d="M33.385,18.35c.08-.135.189-.242.327-.321.139-.078.292-.116.459-.116s.321.038.459.116c.139.079.248.185.327.321s.12.285.12.449-.04.314-.12.449-.189.242-.327.32-.292.117-.459.117-.32-.039-.459-.117-.248-.184-.327-.32-.12-.285-.12-.449.04-.314.12-.449ZM33.702,19.085c.048.085.112.153.194.204.082.05.174.075.276.075.1,0,.192-.025.275-.075.083-.051.148-.118.196-.204s.072-.181.072-.285c0-.106-.024-.201-.072-.286s-.112-.153-.194-.203-.174-.076-.276-.076c-.1,0-.192.026-.274.076-.083.05-.148.117-.196.203s-.072.181-.072.286c0,.105.024.2.072.285Z"/>
    <path class="cls-1" d="M35.838,17.937v1.047c0,.072.016.137.048.194.032.058.078.103.138.135.06.034.129.05.208.05.079,0,.148-.016.207-.05.059-.033.105-.078.138-.135.033-.057.049-.122.049-.194v-1.047h.352v1.047c0,.134-.032.255-.096.362-.064.107-.153.19-.266.25s-.241.09-.384.09-.271-.031-.384-.09c-.113-.06-.202-.143-.265-.25-.064-.107-.096-.228-.096-.362v-1.047h.352Z"/>
    <path class="cls-1" d="M37.506,18.35c.08-.135.189-.242.327-.321.138-.078.29-.116.458-.116.128,0,.246.023.353.068.108.046.2.107.276.182s.135.158.176.249l-.325.126c-.043-.088-.107-.161-.192-.218-.085-.057-.181-.085-.288-.085-.1,0-.192.026-.274.076-.083.05-.148.117-.196.203s-.072.181-.072.286c0,.105.024.2.072.285s.113.153.196.204c.083.05.174.075.274.075.107,0,.203-.029.288-.085.085-.057.149-.129.192-.218l.325.126c-.041.09-.099.174-.176.249-.076.076-.169.136-.276.182s-.225.069-.353.069c-.167,0-.32-.039-.458-.117-.138-.078-.247-.184-.327-.32-.081-.135-.121-.285-.121-.449s.04-.314.121-.449Z"/>
    <path class="cls-1" d="M39.517,17.937h.352v.707h.798v-.707h.352v1.724h-.352v-.707h-.798v.707h-.352v-1.724Z"/>
    <path class="cls-1" d="M41.525,17.937h1.147v.313h-.796v.394h.771v.31h-.771v.394h.796v.313h-1.147v-1.724Z"/>
    <path class="cls-1" d="M43.458,19.317c.055.044.13.065.225.065.056,0,.106-.009.149-.027.044-.018.077-.042.101-.073.024-.03.036-.064.036-.102,0-.044-.015-.081-.046-.109s-.069-.05-.114-.067c-.046-.017-.11-.036-.192-.059-.12-.031-.219-.062-.297-.094-.078-.033-.145-.083-.201-.152s-.084-.161-.084-.278c0-.095.028-.181.084-.259s.132-.139.229-.183c.097-.044.204-.066.32-.066.119,0,.224.02.318.061.094.04.169.097.225.17.057.072.092.155.105.249l-.354.071c-.013-.076-.047-.136-.1-.181s-.122-.067-.205-.067c-.051,0-.096.009-.134.025-.038.016-.068.038-.09.066-.021.028-.032.06-.032.096,0,.041.014.075.043.101s.065.047.109.062c.045.016.106.035.185.056.123.031.224.063.303.097s.147.086.204.159c.058.072.086.17.086.293,0,.097-.029.184-.086.262-.057.078-.136.139-.236.184-.1.045-.212.068-.335.068-.186,0-.339-.044-.46-.131-.121-.087-.194-.204-.217-.35l.354-.072c.016.079.052.14.107.183Z"/>
    <path class="cls-1" d="M45.627,18.35c.08-.135.189-.242.327-.321.139-.078.292-.116.459-.116s.321.038.459.116c.139.079.248.185.327.321s.12.285.12.449-.04.314-.12.449-.189.242-.327.32-.292.117-.459.117-.32-.039-.459-.117-.248-.184-.327-.32-.12-.285-.12-.449.04-.314.12-.449ZM45.943,19.085c.048.085.112.153.194.204.082.05.174.075.276.075.1,0,.192-.025.275-.075.083-.051.148-.118.196-.204s.072-.181.072-.285c0-.106-.024-.201-.072-.286s-.112-.153-.194-.203-.174-.076-.276-.076c-.1,0-.192.026-.274.076-.083.05-.148.117-.196.203s-.072.181-.072.286c0,.105.024.2.072.285Z"/>
    <path class="cls-1" d="M47.751,17.937h.342l1.172,1.576-.325.099v-1.675h.352v1.724h-.342l-1.174-1.576.327-.099v1.675h-.352v-1.724Z"/>
    <path class="cls-1" d="M50.42,17.937h.374l.633,1.719h-.281l.63-1.719h.357l-.663,1.724h-.389l-.662-1.724Z"/>
    <path class="cls-1" d="M52.88,17.937h.389l.699,1.724h-.376l-.679-1.719h.305l-.682,1.719h-.354l.699-1.724ZM52.594,18.974h.96v.312h-.96v-.312Z"/>
    <path class="cls-1" d="M54.314,17.937h.741c.12,0,.226.024.319.072.093.047.164.113.214.198.05.084.075.179.075.282,0,.105-.025.199-.075.282-.05.084-.121.15-.214.196-.093.047-.199.07-.319.07h-.389v.623h-.352v-1.724ZM55.182,18.695c.036-.021.066-.049.087-.085.021-.036.032-.076.032-.12,0-.046-.011-.087-.032-.124-.022-.036-.051-.064-.087-.084-.037-.02-.079-.031-.127-.031h-.389v.475h.389c.048,0,.09-.011.127-.031ZM54.774,18.878h.419l.517.783h-.418l-.517-.783Z"/>
    <path class="cls-1" d="M56.111,17.937h.352v1.724h-.352v-1.724Z"/>
    <path class="cls-1" d="M57.016,18.35c.08-.135.189-.242.327-.321.139-.078.292-.116.459-.116s.321.038.459.116c.139.079.248.185.327.321s.12.285.12.449-.04.314-.12.449-.189.242-.327.32-.292.117-.459.117-.32-.039-.459-.117-.248-.184-.327-.32-.12-.285-.12-.449.04-.314.12-.449ZM57.332,19.085c.048.085.112.153.194.204.082.05.174.075.276.075.1,0,.192-.025.275-.075.083-.051.148-.118.196-.204s.072-.181.072-.285c0-.106-.024-.201-.072-.286s-.112-.153-.194-.203-.174-.076-.276-.076c-.1,0-.192.026-.274.076-.083.05-.148.117-.196.203s-.072.181-.072.286c0,.105.024.2.072.285Z"/>
    <path class="cls-1" d="M59.471,17.937v1.047c0,.072.016.137.048.194.032.058.078.103.138.135.06.034.129.05.208.05.079,0,.148-.016.207-.05.059-.033.105-.078.138-.135.033-.057.049-.122.049-.194v-1.047h.352v1.047c0,.134-.032.255-.096.362-.064.107-.153.19-.266.25s-.241.09-.384.09-.271-.031-.384-.09c-.113-.06-.202-.143-.265-.25-.064-.107-.096-.228-.096-.362v-1.047h.352Z"/>
    <path class="cls-1" d="M61.49,19.317c.055.044.13.065.225.065.056,0,.106-.009.149-.027.044-.018.077-.042.101-.073.024-.03.036-.064.036-.102,0-.044-.015-.081-.046-.109s-.069-.05-.114-.067c-.046-.017-.11-.036-.192-.059-.12-.031-.219-.062-.297-.094-.078-.033-.145-.083-.201-.152s-.084-.161-.084-.278c0-.095.028-.181.084-.259s.132-.139.229-.183c.097-.044.204-.066.32-.066.119,0,.224.02.318.061.094.04.169.097.225.17.057.072.092.155.105.249l-.354.071c-.013-.076-.047-.136-.1-.181s-.122-.067-.205-.067c-.051,0-.096.009-.134.025-.038.016-.068.038-.09.066-.021.028-.032.06-.032.096,0,.041.014.075.043.101s.065.047.109.062c.045.016.106.035.185.056.123.031.224.063.303.097s.147.086.204.159c.058.072.086.17.086.293,0,.097-.029.184-.086.262-.057.078-.136.139-.236.184-.1.045-.212.068-.335.068-.186,0-.339-.044-.46-.131-.121-.087-.194-.204-.217-.35l.354-.072c.016.079.052.14.107.183Z"/>
    <path class="cls-1" d="M63.661,18.35c.08-.135.189-.242.327-.321.138-.078.29-.116.458-.116.128,0,.246.023.353.068.108.046.2.107.276.182s.135.158.176.249l-.325.126c-.043-.088-.107-.161-.192-.218-.085-.057-.181-.085-.288-.085-.1,0-.192.026-.274.076-.083.05-.148.117-.196.203s-.072.181-.072.286c0,.105.024.2.072.285s.113.153.196.204c.083.05.174.075.274.075.107,0,.203-.029.288-.085.085-.057.149-.129.192-.218l.325.126c-.041.09-.099.174-.176.249-.076.076-.169.136-.276.182s-.225.069-.353.069c-.167,0-.32-.039-.458-.117-.138-.078-.247-.184-.327-.32-.081-.135-.121-.285-.121-.449s.04-.314.121-.449Z"/>
    <path class="cls-1" d="M65.702,18.35c.08-.135.189-.242.327-.321.139-.078.292-.116.459-.116s.321.038.459.116c.139.079.248.185.327.321s.12.285.12.449-.04.314-.12.449-.189.242-.327.32-.292.117-.459.117-.32-.039-.459-.117-.248-.184-.327-.32-.12-.285-.12-.449.04-.314.12-.449ZM66.018,19.085c.048.085.112.153.194.204.082.05.174.075.276.075.1,0,.192-.025.275-.075.083-.051.148-.118.196-.204s.072-.181.072-.285c0-.106-.024-.201-.072-.286s-.112-.153-.194-.203-.174-.076-.276-.076c-.1,0-.192.026-.274.076-.083.05-.148.117-.196.203s-.072.181-.072.286c0,.105.024.2.072.285Z"/>
    <path class="cls-1" d="M67.825,17.937h.741c.12,0,.226.024.319.072.093.047.164.113.214.198.05.084.075.179.075.282,0,.105-.025.199-.075.282-.05.084-.121.15-.214.196-.093.047-.199.07-.319.07h-.389v.623h-.352v-1.724ZM68.693,18.695c.036-.021.066-.049.087-.085.021-.036.032-.076.032-.12,0-.046-.011-.087-.032-.124-.022-.036-.051-.064-.087-.084-.037-.02-.079-.031-.127-.031h-.389v.475h.389c.048,0,.09-.011.127-.031ZM68.285,18.878h.419l.517.783h-.418l-.517-.783Z"/>
    <path class="cls-1" d="M69.623,17.937h1.147v.313h-.796v.394h.771v.31h-.771v.394h.796v.313h-1.147v-1.724Z"/>
    <path class="cls-1" d="M71.991,17.937h.332v1.724h-.332v-1.724ZM72.107,17.937h.345l.652,1.601h-.303l.652-1.601h.325l-.7,1.724h-.273l-.699-1.724ZM73.562,17.937h.332v1.724h-.332v-1.724Z"/>
    <path class="cls-1" d="M74.734,17.937v1.047c0,.072.016.137.048.194.032.058.078.103.138.135.06.034.129.05.208.05.079,0,.148-.016.207-.05.059-.033.105-.078.138-.135.033-.057.049-.122.049-.194v-1.047h.352v1.047c0,.134-.032.255-.096.362-.064.107-.153.19-.266.25s-.241.09-.384.09-.271-.031-.384-.09c-.113-.06-.202-.143-.265-.25-.064-.107-.096-.228-.096-.362v-1.047h.352Z"/>
    <path class="cls-1" d="M76.754,19.317c.055.044.13.065.225.065.056,0,.106-.009.149-.027.044-.018.077-.042.101-.073.024-.03.036-.064.036-.102,0-.044-.015-.081-.046-.109s-.069-.05-.114-.067c-.046-.017-.11-.036-.192-.059-.12-.031-.219-.062-.297-.094-.078-.033-.145-.083-.201-.152s-.084-.161-.084-.278c0-.095.028-.181.084-.259s.132-.139.229-.183c.097-.044.204-.066.32-.066.119,0,.224.02.318.061.094.04.169.097.225.17.057.072.092.155.105.249l-.354.071c-.013-.076-.047-.136-.1-.181s-.122-.067-.205-.067c-.051,0-.096.009-.134.025-.038.016-.068.038-.09.066-.021.028-.032.06-.032.096,0,.041.014.075.043.101s.065.047.109.062c.045.016.106.035.185.056.123.031.224.063.303.097s.147.086.204.159c.058.072.086.17.086.293,0,.097-.029.184-.086.262-.057.078-.136.139-.236.184-.1.045-.212.068-.335.068-.186,0-.339-.044-.46-.131-.121-.087-.194-.204-.217-.35l.354-.072c.016.079.052.14.107.183Z"/>
    <path class="cls-1" d="M78.084,17.937h.352v1.724h-.352v-1.724Z"/>
    <path class="cls-1" d="M78.991,18.35c.08-.135.189-.242.327-.321.138-.078.29-.116.458-.116.128,0,.246.023.353.068.108.046.2.107.276.182s.135.158.176.249l-.325.126c-.043-.088-.107-.161-.192-.218-.085-.057-.181-.085-.288-.085-.1,0-.192.026-.274.076-.083.05-.148.117-.196.203s-.072.181-.072.286c0,.105.024.2.072.285s.113.153.196.204c.083.05.174.075.274.075.107,0,.203-.029.288-.085.085-.057.149-.129.192-.218l.325.126c-.041.09-.099.174-.176.249-.076.076-.169.136-.276.182s-.225.069-.353.069c-.167,0-.32-.039-.458-.117-.138-.078-.247-.184-.327-.32-.081-.135-.121-.285-.121-.449s.04-.314.121-.449Z"/>
  </g>
  <g>
    <g>
      <path class="cls-1" d="M1.436,5.008c-.174.871.24,1.589.697,2.09.152.196.174.392.131.566-.065.326-.392.631-.762.631-.152,0-.305-.066-.457-.174C.239,7.403-.196,6.314.086,5.008.587,2.7,2.938,1.394,5.202,1.394h7.794c.435,0,.609.305.522.631-.065.327-.348.653-.784.653h-7.794c-1.35,0-3.135.609-3.505,2.329ZM10.209,9.819c-.065.327-.348.631-.784.631h-2.917s-.327,1.524-.327,1.524c-.283,1.328-1.067,2.373-2.678,2.373-.566,0-1.306-.087-1.72-.762-.065-.153-.087-.305-.044-.436.065-.37.457-.653.827-.653.174,0,.326.065.457.218.174.218.435.348.74.348.631,0,.914-.348,1.219-1.807l.174-.805h-1.176c-.436,0-.588-.326-.523-.653.087-.327.37-.632.806-.632h1.176s1.023-4.898,1.023-4.898c.109-.436.501-.675.849-.675.327,0,.61.218.501.675l-1.023,4.898h2.917c.435,0,.566.327.501.653Z"/>
      <path class="cls-1" d="M18.387,11.866c-.109.522-.196,1.197.131,1.197.109,0,.218-.065.414-.218.196-.174.392-.217.544-.217.305,0,.544.218.457.566-.022.131-.109.305-.261.479-.501.523-1.067.697-1.546.697-.98,0-1.459-.588-1.197-1.981-1.045,1.393-2.416,1.981-3.548,1.981-1.176,0-2.199-.827-1.872-2.416l1.197-5.573c.087-.435.457-.653.806-.653.327,0,.631.218.544.653l-1.067,5.029c-.283,1.284.283,1.676.893,1.676,1.459,0,3.157-1.219,3.723-3.875l.609-2.83c.087-.435.457-.653.806-.653.327,0,.631.218.544.653l-1.176,5.486Z"/>
      <path class="cls-1" d="M27.041,7.49c-.065.326-.414.609-.74.609-.218,0-.326-.087-.566-.391-.348-.479-.827-.697-1.458-.697-.871,0-1.524.61-1.676,1.306-.348,1.611,3.309,1.785,2.786,4.245-.24,1.154-1.546,1.807-2.547,1.807-.522,0-1.372-.13-1.742-.762-.087-.174-.109-.348-.087-.501.087-.37.457-.675.806-.675.196,0,.37.087.501.305.13.239.414.348.74.348.348,0,.893-.087,1.001-.566.065-.327-.109-.696-.327-.871-.958-.893-2.917-1.328-2.482-3.309.305-1.437,1.894-2.613,3.287-2.613,1.154,0,2.133.501,2.504,1.459.043.109.022.196,0,.305Z"/>
      <path class="cls-1" d="M28.746,11.866c-.109.522-.174,1.197.131,1.197.109,0,.239-.065.435-.218.174-.174.37-.218.522-.217.327,0,.544.217.457.566-.022.131-.109.305-.261.479-.501.522-1.045.696-1.546.696-1.001,0-1.48-.631-1.176-2.09l1.263-5.899c.087-.435.457-.653.806-.653.327,0,.631.218.544.653l-1.176,5.486ZM31.86,3.27c.025-.144-.044-.276-.54-.363-.166-.029-.359-.05-.543-.059-.054-.003-.07-.075-.022-.1.163-.086.329-.186.467-.283.412-.289.419-.438.335-.557-.084-.12-.226-.164-.639.125-.138.097-.289.219-.425.342-.04.036-.102-.003-.086-.055.054-.176.101-.364.13-.53.087-.496-.013-.606-.157-.631s-.276.044-.363.54c-.029.166-.05.359-.059.543-.003.054-.075.07-.1.022-.086-.163-.186-.329-.283-.467-.289-.412-.438-.419-.557-.335-.12.084-.164.226.125.639.097.138.218.289.342.425.036.04-.003.102-.055.086-.176-.054-.364-.101-.53-.13-.496-.087-.606.013-.631.157s.044.276.54.363c.166.029.359.05.543.059.054.003.07.075.022.1-.163.086-.329.186-.467.283-.412.289-.419.438-.336.557.084.12.226.164.639-.125.138-.097.289-.218.425-.342.04-.036.102.003.086.055-.054.176-.101.364-.13.53-.087.496.013.606.157.631s.276-.044.363-.54c.029-.166.05-.359.059-.543.003-.054.075-.07.1-.022.086.163.186.329.283.467.289.412.438.419.557.335.12-.084.164-.226-.125-.639-.097-.138-.219-.289-.342-.425-.036-.04.003-.102.055-.086.176.054.364.101.53.13.496.087.606-.013.631-.157Z"/>
      <path class="cls-1" d="M36.514,5.726c2.395,0,3.918,1.938,3.418,4.333-.501,2.394-2.852,4.31-5.246,4.31s-3.918-1.916-3.418-4.31c.501-2.395,2.852-4.333,5.247-4.333ZM34.946,13.085c1.655,0,3.287-1.35,3.635-3.026.348-1.676-.675-3.048-2.329-3.048-1.654,0-3.287,1.372-3.636,3.048-.348,1.676.675,3.026,2.329,3.026Z"/>
      <path class="cls-1" d="M48.026,11.866c-.109.522-.174,1.197.131,1.197.109,0,.218-.044.436-.218.196-.174.37-.217.522-.217.305,0,.544.217.457.566-.022.131-.109.305-.261.479-.501.522-1.045.696-1.546.697-1.002,0-1.48-.631-1.176-2.09l.762-3.592c.283-1.285-.283-1.676-.893-1.676-1.48,0-3.157,1.219-3.723,3.897l-.61,2.808c-.087.435-.479.653-.827.653-.327,0-.61-.218-.522-.653l1.567-7.358c.087-.414.457-.632.806-.632.327,0,.631.218.544.632l-.283,1.35c1.045-1.393,2.416-1.981,3.549-1.982,1.175,0,2.199.849,1.872,2.417l-.805,3.723Z"/>
      <path class="cls-1" d="M57.931,16.212c-.041-.007-.167-.035-.248-.119l-.32-.16c-.092-.029-.193-.078-.291-.124-.111-.053-.215-.103-.325-.132l-.01-.002c-.047-.008-.11-.033-.147-.052l-.03-.015-.021-.026c-.055-.069-.167-.136-.249-.185l-.026-.016-.059-.04c-.081-.054-.139-.094-.204-.12l-.029-.012-.022-.022c-.059-.059-.122-.11-.185-.161-.122-.099-.248-.202-.346-.349l-.211-.187v-.008c-.012-.01-.022-.019-.033-.03-.036-.036-.061-.086-.085-.134-.036-.071-.091-.134-.149-.2-.082-.093-.174-.197-.227-.341-.024-.059-.075-.142-.12-.216l-.051-.084-.005-.018c-.028-.094-.074-.167-.126-.251-.042-.067-.084-.136-.119-.214-.036-.084-.064-.171-.093-.262-.02-.063-.041-.128-.065-.192l-.126-.293v-.031c-.017-.018-.039-.061-.039-.116,0-.103-.029-.209-.06-.321-.032-.114-.064-.231-.074-.364,0-.25-.019-.476-.057-.703-.022-.172-.022-.312.039-.485l.056-.562c.024-.219.074-.414.102-.511.039-.175.081-.323.165-.491.015-.044.039-.103.064-.163.062-.151.121-.293.133-.439l.003-.029.029-.061c.015-.035.031-.071.054-.102.111-.185.173-.318.206-.517l.004-.023.01-.021c.021-.043.063-.109.114-.163.111-.166.214-.322.263-.49.045-.095.081-.141.119-.189l.041-.053c.071-.107.142-.214.195-.336l.018-.04c.018-.041.04-.09.073-.139.136-.151.25-.295.371-.448.085-.107.17-.215.259-.32.038-.039.065-.07.093-.102.063-.072.134-.154.229-.217.022-.015.056-.053.086-.086.022-.024.043-.048.065-.069l.085-.1c.11-.13.224-.264.366-.39.047-.057.119-.124.191-.191.063-.059.127-.118.181-.181l.014-.016.018-.012c.111-.074.216-.165.328-.262.112-.097.227-.198.365-.296.058-.044.152-.095.25-.149.043-.024.088-.048.13-.072.031-.015.053-.025.068-.036l.021-.022.023-.008c.065-.028.124-.078.192-.137.046-.04.094-.08.147-.118.053-.043.123-.072.184-.098.014-.006.027-.011.04-.017-.047-.018-.096-.034-.147-.052-.12-.041-.244-.083-.362-.151-.055-.018-.11-.038-.164-.057-.168-.059-.326-.116-.482-.143-.163-.034-.301-.062-.441-.087-.261-.046-.479-.067-.687-.067-.338,0-.688,0-1.056.019-.09,0-.202,0-.262.015l-.497.08c-.179.05-.348.104-.537.199-.074.041-.156.077-.237.112-.131.057-.255.111-.349.195-.139.101-.246.178-.288.288l-.006.016-.04.06c-.031.045-.069.098-.095.152-.059.085-.1.161-.145.24-.04.071-.081.146-.129.221,0,.11-.002.188-.02.267-.002.02-.005.046-.009.072-.004.026-.009.055-.009.08v.036s-.016.032-.016.032c-.034.068-.136.273-.372.313-.078.023-.166.023-.266.023h-.013s-.037-.004-.037-.004c-.059-.01-.116-.039-.156-.079l-.188-.248c-.078-.103-.108-.194-.108-.324,0-.096.006-.187.011-.273.004-.068.009-.132.008-.192v-.022s.006-.021.006-.021c.067-.224.133-.367.235-.51.046-.061.086-.122.127-.183.063-.094.128-.191.207-.285.062-.206.239-.338.395-.455.056-.043.113-.09.171-.137.116-.095.237-.193.358-.274.068-.036.118-.062.166-.087.099-.051.191-.1.284-.139.113-.038.203-.08.29-.121.109-.051.222-.103.349-.138.14-.057.319-.084.493-.11.061-.009.12-.018.177-.028.277-.074.584-.101.927-.079h.106c.436-.018.893.012,1.316.087.056.01.112.021.167.032.054.017.091.024.128.031l.084.014c.051.009.102.02.153.037.262.055.534.114.823.191.081.027.131.052.2.098.133.085.284.128.444.174.065.019.131.038.197.06.098.039.187.082.278.127.106.052.215.105.326.145.01.003.022.007.034.009.036.006.063.003.126-.035l.045-.028c.231-.143.432-.267.656-.345.145-.113.298-.174.433-.227.077-.03.153-.06.227-.1l.012-.006.013-.004c.109-.036.235-.09.363-.145.133-.086.279-.127.441-.168l.427-.168.052-.022c.089-.038.2-.085.33-.103.206-.019.409-.095.584-.165.1-.027.192-.05.289-.05.122-.012.256-.03.39-.047.262-.034.532-.069.81-.069.049,0,.1-.006.152-.011.096-.01.195-.021.296-.006.033.007.054.011.075.015.085.015.173.023.26.031.097.009.194.018.289.035.058.01.116.023.172.041.052.017.1.028.148.036.05.009.102.015.153.022.059.008.119.015.181.026l.044.008c.224.066.465.148.655.274.097.047.204.11.316.177.08.047.163.096.252.145.112.056.196.144.263.214l.055.056.009.014c.048.076.1.147.15.218.091.127.185.258.264.415.074.122.097.236.072.383.002.028-.003.082-.009.135-.004.043-.009.087-.009.13-.042.264-.122.477-.254.698l-.023.038-.04.02c-.017.026-.028.039-.038.049-.042.037-.074.063-.105.088-.092.075-.166.135-.227.222-.029.062-.101.087-.136.1v-.002c-.028.019-.054.029-.072.035,0,0-.182.105-.27.154-.151.086-.308.174-.464.27-.053.044-.127.069-.208.069-.082.007-.177.039-.277.074-.137.047-.292.1-.477.1-.018.001-.075.021-.106.031-.261.066-.449.066-.666.066-.213-.013-.412-.009-.604-.005-.097.002-.192.004-.288.005-.264.018-.561.004-.873-.04-.07-.016-.126-.027-.181-.037-.106-.019-.21-.033-.315-.047-.079-.01-.159-.021-.241-.034l-.018-.003-.017-.007c-.239-.097-.488-.182-.751-.271-.198-.067-.399-.135-.599-.21-.238-.068-.481-.156-.8-.293-.133-.073-.288-.132-.437-.189-.048-.018-.095-.036-.141-.054-.138-.016-.242-.008-.31.021-.049.035-.105.065-.163.095-.026.014-.053.027-.08.043-.051.063-.13.106-.195.127-.241.074-.4.188-.565.336-.078.078-.173.124-.249.16l-.036.018c-.22.129-.435.255-.593.43-.047.047-.093.093-.164.141-.156.086-.272.195-.406.322-.045.042-.09.086-.138.129l-.013.014c-.485.504-.504.523-.901.996-.057.087-.138.188-.21.277l-.039.049c-.147.159-.248.314-.355.479-.071.11-.144.222-.23.333-.01.026-.023.052-.036.078-.011.023-.023.045-.031.068-.022.089-.066.191-.108.29-.031.071-.062.143-.086.215-.038.103-.086.188-.132.271-.031.057-.062.111-.086.166-.002.009-.005.031-.009.051-.006.037-.013.074-.026.111-.01.026-.012.035-.014.044-.007.033-.017.075-.046.114-.126.2-.213.416-.265.658-.028.088-.053.138-.099.207-.09.181-.11.363-.11.574-.011.075-.01.125-.01.177,0,.067,0,.137-.011.212-.011.181.009.376.031.581.01.099.021.198.027.297.052.159.081.299.11.434.022.102.042.201.073.304l.035.052.006.015c.132.331.244.584.362.821l.247.416c.068.102.141.193.213.283l.033.042.006.053s0,0,.002,0c.004,0,.012.008.029.019l.017.012.013.016c.077.089.166.163.261.241.036.03.073.06.109.091.07.07.171.139.278.192l.022.011.017.017c.022.021.101.061.154.088.197.107.392.197.617.301l.056.026c.118.072.202.122.294.138.036.006.072.008.111.004.033,0,.052.001.073.005.042.007.094.024.145.041.015.003.041.012.065.02.017.006.033.012.049.015l.018-.004.174-.002c.209-.004.496-.009.655.019h.006c.186-.012.399-.059.606-.105.155-.034.302-.066.434-.084.097-.031.451-.135.596-.168.042-.023.085-.045.128-.066.089-.045.174-.087.237-.14l.022-.019.028-.009c.099-.033.17-.093.183-.117l.014-.028.082-.068c.087-.072.162-.134.223-.195.072-.092.177-.197.283-.282.094-.07.105-.102.106-.104l.02-.06.024-.012c.041-.101.084-.154.144-.227l.017-.021c.019-.045.047-.089.07-.125.005-.009.011-.017.015-.024.031-.16.08-.313.127-.462l.04-.128v-.112c0-.123-.049-.267-.127-.376l-.028-.04v-.049c0-.015-.023-.061-.038-.092-.01-.019-.02-.039-.029-.059-.019-.015-.041-.033-.066-.055-.012-.011-.024-.021-.035-.03h-.012s-.007-.014-.007-.014c-.04-.02-.082-.044-.126-.069-.079-.046-.161-.093-.235-.114l-.013-.004-.012-.006c-.057-.029-.117-.045-.199-.062h-.449c-.058,0-.128.015-.146.023l-.068.026c-.075.027-.116.043-.15.087l-.021.027-.031.015c-.032.029-.071.064-.135.085-.116.029-.229.034-.332.016-.111-.02-.204-.064-.269-.13-.123-.124-.18-.293-.18-.534,0-.101.072-.173.102-.204.016-.036.029-.068.058-.097l.013-.014.016-.01c.094-.056.146-.109.166-.169l.006-.019.011-.017c.062-.094.138-.116.189-.13l.032-.01c.284-.081.585-.122.893-.122.149.02.259.02.426.019.053,0,.106.005.161.015.062.011.126.028.197.052.092.037.238.073.38.109l.04.01.046.033c.027.012.059.029.091.055.094.04.183.095.248.151.054.018.105.042.143.103.049.054.105.104.159.154.119.109.242.221.317.371l.009.018.004.02c.01.051.042.102.082.167l.026.042c.04.047.056.093.065.122l.006.013.011.032c.033.115.052.237.069.345l.013.078c.035.119.069.274-.003.438-.014.093-.014.159-.014.265,0,.133,0,.239-.02.346-.004.067-.034.12-.089.157-.037.05-.057.106-.081.176-.024.071-.053.151-.104.233l-.009.015-.012.012c-.116.116-.196.216-.259.324-.049.131-.159.248-.271.36-.011.026-.028.048-.05.07-.088.078-.168.152-.248.227-.245.227-.499.462-.79.63l-.019.011-.021.005c-.028.007-.039.014-.065.053l-.008.012-.01.01c-.018.018-.034.036-.049.053-.034.039-.07.079-.119.114-.029.025-.071.05-.115.063-.244.149-.485.204-.69.239-.116.002-.18.029-.278.069-.031.013-.064.026-.101.04-.094.033-.189.066-.279.05h-.006c-.045-.001-.112,0-.135.006l-.032.016-.027-.004c-.082,0-.17.018-.255.035-.037.008-.073.015-.107.021-.121.02-.245.041-.412.041-.044.007-.13.006-.222.005-.107-.001-.238-.003-.316.016l-.029.03-.104-.006c-.01-.002-.02-.004-.029-.007l-.048-.003c-.24-.019-.489-.038-.726-.074-.001.002-.029,0-.057-.006ZM64.27,3.024c.339.06.846.133,1.331.079.164-.021.325-.02.481-.02.314.031.667-.024,1.094-.166l.023-.008h.025c.039,0,.091-.032.145-.065.069-.042.147-.09.245-.106.048-.016.088-.031.126-.056l.017-.011.019-.006c.022-.008.045-.02.068-.031.035-.018.071-.035.106-.047h0s.003-.006.018-.021l.013-.013.016-.01c.064-.038.105-.089.15-.162.014-.048.033-.096.051-.139.009-.022.018-.043.024-.062.009-.039.002-.071-.002-.076-.11-.109-.223-.223-.355-.388-.068-.028-.13-.056-.189-.083-.089-.041-.172-.079-.268-.111l-.161-.052c-.178-.058-.346-.113-.531-.146-.075-.013-.153-.023-.235-.027-.349-.043-.643-.056-.911-.039-.346,0-.67.069-1.014.142l-.048.01c-.04.014-.102.029-.162.044-.058.014-.115.027-.162.045-.159.066-.307.106-.463.148-.079.021-.159.043-.245.069-.13.043-.328.116-.502.233l-.013.009-.015.006c-.066.026-.129.057-.192.088-.117.057-.237.116-.37.147-.056.033-.105.066-.155.099-.021.014-.043.029-.065.043.057.021.116.046.184.086.262.103.549.198.832.274l.341.12c.088.043.165.06.247.077.073.016.147.032.22.059.018.008.03.011.04.014.018.005.042.01.068.021.058.011.116.022.174.032Z"/>
      <path class="cls-1" d="M71.279,5.784c2.395,0,3.919,1.938,3.418,4.333-.501,2.395-2.852,4.31-5.247,4.31s-3.919-1.915-3.418-4.31c.501-2.395,2.852-4.332,5.247-4.333ZM69.711,13.143c1.655,0,3.287-1.35,3.636-3.026.348-1.676-.675-3.048-2.329-3.048-1.654,0-3.287,1.372-3.636,3.048-.348,1.676.675,3.026,2.329,3.026Z"/>
      <path class="cls-1" d="M77.109,6.416c.087-.414.479-.632.805-.632.348,0,.631.218.544.632l-.326,1.502c.871-1.306,2.068-2.134,3.374-2.134.871,0,1.132.588,1.045,1.089-.087.414-.479.719-.849.718-.174,0-.348-.065-.457-.218-.109-.131-.283-.261-.522-.261-1.546,0-2.939,2.482-3.222,3.788l-.61,2.873c-.087.436-.479.653-.827.653-.327,0-.61-.217-.523-.653l1.568-7.358Z"/>
      <path class="cls-1" d="M81.712,10.117c.523-2.438,2.504-4.332,5.051-4.332,2.373,0,3.2,1.372,2.917,2.7-.283,1.284-1.589,2.547-3.461,2.547-.653,0-1.328-.13-1.785-.392-.719-.392-.043-1.589.784-1.197.327.152.784.305,1.306.305,1.002,0,1.655-.588,1.785-1.198.152-.697-.283-1.48-1.785-1.48-1.72,0-3.113,1.371-3.461,3.048-.348,1.655.414,3.004,2.025,3.026.98,0,1.589-.283,2.438-.914.696-.566,1.415.218.675.936-.936.893-2.177,1.263-3.331,1.262-2.416,0-3.657-1.959-3.157-4.31Z"/>
    </g>
    <path class="cls-1" d="M109.39,17.742v.018c0,.547-.365,1.029-.895,1.168-.997.262-2.289.4-3.034.4-1.863,0-3.297-1.182-5.017-1.182-1.025,0-2.357.682-3.465,1.333-.648.38-1.481.147-1.829-.518h0c-.318-.608-.115-1.355.468-1.717,4.281-2.66,11.84-8.492,9.116-12.922-.764-1.243-2.158-2.023-3.615-1.935-1.987.119-3.471,1.62-3.471,3.647,0,.78.215,1.477.68,2.023.397.467.43,1.141.038,1.613h0c-.474.571-1.347.598-1.851.053-.924-.999-1.447-2.293-1.447-3.689C95.069,2.558,97.972.013,101.376.013c3.977,0,6.522,2.365,6.522,6.378,0,3.942-3.737,7.835-6.808,9.675.251-.036.501-.072.752-.072,1.362,0,2.401.825,3.799.825.627,0,1.494-.073,2.285-.241.752-.159,1.465.394,1.465,1.163Z"/>
  </g>
  <rect class="cls-1" x="83.368" y="18.576" width="9.021" height=".492"/>
</svg>