<?xml version="1.0" encoding="UTF-8"?>
<svg xmlns="http://www.w3.org/2000/svg" viewBox="0 0 342.215 273.6">
  <defs>
    <style>
      .b, .c {
        fill: #4b0038;
      }

      .c, .d {
        mix-blend-mode: multiply;
      }

      .e {
        isolation: isolate;
      }
    </style>
  </defs>
  <g class="e">
    <g id="a" data-name="Image">
      <g class="d">
        <g>
          <path class="b" d="M22.253,224.148c-.069,3.055,1.761,5.242,3.609,6.665.634.573.825,1.224.781,1.841-.026,1.145-.951,2.373-2.205,2.595-.516.091-1.072-.041-1.654-.318-3.158-1.954-5.283-5.381-5.105-9.976.318-8.118,7.505-13.949,15.176-15.302l26.408-4.657c1.475-.26,2.247.668,2.147,1.827-.026,1.146-.79,2.421-2.266,2.681l-26.408,4.657c-4.573.806-10.258,3.938-10.484,9.987ZM54.855,235.209c-.026,1.146-.803,2.347-2.279,2.607l-9.884,1.743-.196,5.358c-.166,4.67-2.197,8.678-7.655,9.641-1.917.338-4.478.485-6.283-1.553-.312-.479-.477-.982-.408-1.45,0-1.293,1.16-2.485,2.414-2.707.59-.104,1.145.026,1.679.464.72.633,1.683.92,2.716.738,2.139-.378,2.89-1.727,3.051-6.852l.109-2.832-3.984.703c-1.476.26-2.186-.755-2.161-1.9.1-1.159.877-2.362,2.353-2.622l3.983-.703.54-17.207c.109-1.541,1.293-2.587,2.473-2.795,1.107-.195,2.196.374,2.1,1.989l-.54,17.207,9.885-1.743c1.475-.26,2.113.769,2.087,1.915Z"/>
          <path class="b" d="M83.787,237.257c-.057,1.835.051,4.173,1.158,3.978.369-.065.699-.35,1.272-.984.559-.708,1.198-.971,1.714-1.062,1.033-.182,1.974.412,1.887,1.644.004.457-.186,1.098-.599,1.779-1.384,2.07-3.198,2.997-4.821,3.284-3.319.585-5.293-1.12-5.24-5.997-2.708,5.345-7.005,8.155-10.84,8.832-3.984.703-7.944-1.488-7.788-7.069l.727-19.599c.035-1.527,1.159-2.487,2.339-2.695,1.106-.195,2.269.361,2.234,1.888l-.61,17.678c-.192,4.52,1.96,5.511,4.026,5.146,4.942-.871,9.968-6.017,10.299-15.355l.374-9.953c.035-1.526,1.159-2.486,2.339-2.695,1.106-.195,2.27.362,2.234,1.888l-.705,19.292Z"/>
          <path class="b" d="M110.496,217.259c-.026,1.145-1.038,2.312-2.144,2.507-.738.13-1.158-.099-2.152-.988-1.466-1.416-3.219-1.867-5.358-1.489-2.95.52-4.799,2.976-4.899,5.427-.218,5.666,12.279,4.071,11.978,12.72-.122,4.052-4.158,7.045-7.551,7.643-1.77.312-4.725.378-6.356-1.541-.399-.538-.577-1.115-.594-1.645.074-1.306,1.146-2.559,2.327-2.768.663-.117,1.305.074,1.878.734.585.733,1.609.933,2.716.738,1.18-.208,2.972-.828,3.055-2.516.026-1.146-.785-2.295-1.627-2.755-3.778-2.453-10.678-2.756-10.386-9.729.174-5.051,4.857-9.984,9.578-10.817,3.909-.689,7.528.423,9.355,3.447.212.343.191.651.182,1.032Z"/>
          <path class="b" d="M118.888,231.068c-.057,1.835.126,4.161,1.158,3.978.368-.065.772-.364,1.345-.998.486-.695,1.124-.958,1.641-1.049,1.106-.195,1.974.411,1.887,1.644.004.456-.187,1.098-.6,1.779-1.384,2.069-3.124,2.984-4.821,3.283-3.393.599-5.393-1.254-5.232-6.379l.754-20.744c.035-1.527,1.159-2.487,2.339-2.695,1.106-.195,2.269.361,2.234,1.888l-.706,19.292ZM123.009,200.79c0-.398-.249-.721-1.623-.721-.46,0-.988.036-1.487.099-.147.019-.224-.167-.107-.258.397-.308.796-.656,1.122-.981.972-.972.919-1.376.638-1.658-.282-.282-.686-.334-1.658.638-.325.325-.673.724-.981,1.122-.091.117-.277.04-.258-.107.063-.499.099-1.027.099-1.487,0-1.374-.323-1.623-.721-1.623s-.721.249-.721,1.623c0,.46.036.988.099,1.487.019.147-.167.224-.258.107-.308-.397-.656-.796-.981-1.122-.972-.972-1.376-.919-1.658-.638-.282.282-.334.686.638,1.658.325.325.724.673,1.122.981.117.091.04.277-.107.258-.499-.063-1.027-.099-1.487-.099-1.374,0-1.623.323-1.623.721s.249.721,1.623.721c.46,0,.988-.036,1.487-.099.147-.019.224.167.107.258-.397.308-.796.656-1.122.981-.972.972-.92,1.376-.638,1.658.282.282.686.334,1.658-.638.325-.325.673-.724.981-1.122.091-.117.276-.04.258.107-.063.499-.099,1.027-.099,1.487,0,1.374.323,1.623.721,1.623s.721-.249.721-1.623c0-.46-.036-.988-.099-1.487-.019-.147.167-.224.258-.107.308.397.656.796.981,1.122.972.972,1.376.92,1.658.638.282-.282.334-.686-.638-1.658-.325-.325-.724-.673-1.122-.981-.117-.091-.04-.276.107-.258.499.063,1.027.099,1.487.099,1.374,0,1.623-.323,1.623-.721Z"/>
          <path class="b" d="M141.539,205.624c8.114-1.431,14.435,4.225,14.169,12.638-.266,8.413-7.088,16.309-15.202,17.739-8.114,1.431-14.422-4.15-14.156-12.562.265-8.414,7.075-16.385,15.189-17.815ZM140.624,231.494c5.607-.989,10.332-6.538,10.511-12.425.179-5.888-4.107-9.924-9.714-8.936-5.606.988-10.319,6.612-10.498,12.499-.179,5.888,4.095,9.849,9.701,8.862Z"/>
          <path class="b" d="M184.216,219.548c-.057,1.835.126,4.161,1.159,3.978.368-.065.712-.278,1.346-.998.559-.707,1.123-.957,1.64-1.049,1.032-.182,1.973.412,1.887,1.644.004.457-.187,1.098-.599,1.779-1.384,2.069-3.125,2.984-4.821,3.284-3.394.598-5.393-1.254-5.233-6.38l.436-12.626c.192-4.522-1.961-5.511-4.026-5.146-5.016.884-9.968,6.016-10.286,15.427l-.387,9.88c-.035,1.527-1.233,2.499-2.413,2.707-1.106.195-2.195-.373-2.16-1.9l.915-25.868c.048-1.454,1.172-2.414,2.352-2.622,1.106-.195,2.269.361,2.221,1.815l-.153,4.742c2.708-5.346,7.004-8.157,10.84-8.834,3.983-.702,7.957,1.564,7.787,7.07l-.505,13.096Z"/>
          <path class="b" d="M220.375,228.357c-.142,0-.586-.02-.913-.256l-1.181-.352c-.33-.042-.702-.147-1.061-.247-.406-.114-.79-.221-1.181-.253h-.035c-.165,0-.391-.044-.53-.086l-.11-.033-.086-.076c-.228-.201-.647-.36-.955-.478l-.098-.038-.224-.099c-.306-.136-.527-.236-.762-.285l-.104-.023-.087-.06c-.234-.163-.48-.3-.724-.436-.472-.263-.96-.536-1.383-.977l-.825-.508-.005-.026c-.046-.027-.087-.052-.128-.082-.144-.1-.258-.254-.368-.403-.163-.22-.387-.398-.624-.587-.332-.265-.708-.564-.972-1.02-.116-.185-.34-.437-.537-.66l-.223-.253-.029-.059c-.153-.302-.35-.521-.578-.776-.182-.203-.366-.409-.531-.655-.171-.262-.319-.542-.471-.832-.107-.201-.215-.408-.335-.612l-.601-.917-.019-.106c-.069-.051-.167-.182-.201-.37-.061-.349-.224-.691-.396-1.053-.175-.366-.356-.744-.469-1.188-.152-.848-.35-1.603-.611-2.347-.176-.571-.261-1.044-.157-1.668l-.145-1.936c-.049-.758.004-1.447.041-1.791.026-.615.08-1.142.266-1.762.023-.156.071-.373.119-.592.12-.548.235-1.067.189-1.568l-.009-.101.061-.224c.03-.128.061-.26.123-.377.265-.693.397-1.18.39-1.874v-.079l.023-.076c.047-.158.149-.408.288-.621.276-.63.531-1.22.6-1.817.096-.349.191-.525.291-.71l.107-.203c.176-.404.354-.809.459-1.255l.038-.148c.036-.151.08-.33.163-.515.37-.592.67-1.15.989-1.74.223-.415.448-.832.686-1.24.105-.154.18-.277.254-.401.171-.282.364-.601.647-.871.067-.064.16-.212.241-.343.059-.094.117-.188.178-.274l.229-.391c.296-.505.601-1.027,1.008-1.539.125-.222.329-.492.533-.761.18-.238.36-.475.507-.723l.037-.061.052-.051c.332-.318.634-.69.954-1.085.321-.396.652-.806,1.06-1.222.172-.183.457-.412.759-.654.133-.107.269-.215.398-.323.096-.07.166-.117.209-.163l.059-.086.074-.041c.202-.133.373-.339.57-.578.133-.162.27-.327.428-.488.154-.177.373-.318.565-.442.042-.027.084-.054.125-.081-.169-.033-.345-.06-.527-.088-.432-.066-.877-.135-1.317-.295-.197-.03-.394-.062-.591-.095-.603-.101-1.173-.197-1.72-.197-.572-.016-1.057-.032-1.547-.032-.91,0-1.664.058-2.369.182-1.146.201-2.331.41-3.568.696-.304.054-.684.121-.878.207l-1.635.568c-.577.275-1.116.562-1.7.993-.228.182-.483.353-.736.521-.41.271-.797.527-1.067.868-.41.425-.727.749-.802,1.149l-.012.06-.101.226c-.079.172-.174.375-.233.571-.148.324-.244.604-.347.901-.092.265-.189.542-.306.825.065.374.104.638.091.916.006.07.01.158.012.251.002.092.002.193.016.276l.021.121-.034.117c-.074.251-.296,1.005-1.075,1.284-.251.125-.547.176-.888.237l-.045.008-.126.007c-.208,0-.418-.064-.576-.176l-.786-.728c-.325-.303-.481-.593-.558-1.033-.058-.327-.093-.638-.126-.931-.026-.232-.05-.452-.086-.655l-.013-.075.008-.076c.093-.799.231-1.322.491-1.867.118-.234.219-.463.322-.695.157-.358.32-.725.53-1.09.089-.736.607-1.289,1.067-1.779.163-.18.33-.374.498-.568.338-.391.686-.795,1.05-1.142.21-.162.363-.279.512-.394.303-.233.589-.452.88-.642.36-.197.639-.393.91-.582.34-.238.691-.483,1.101-.676.441-.277,1.032-.476,1.605-.668.2-.067.397-.133.584-.202.895-.417,1.92-.691,3.095-.822l.359-.065c1.468-.32,3.035-.491,4.51-.491.197,0,.391.003.585.009.194.025.323.028.452.028l.294-.002c.179,0,.358.006.541.033.919.031,1.878.066,2.904.154.29.042.474.098.737.212.502.208,1.04.265,1.608.325.233.024.467.05.703.085.355.073.684.167,1.019.264.388.112.791.228,1.19.297.034.005.079.009.121.009.125,0,.217-.029.406-.192l.135-.12c.698-.621,1.305-1.161,2.018-1.561.425-.47.905-.766,1.33-1.028.242-.149.482-.296.708-.476l.037-.029.041-.023c.347-.187.743-.447,1.142-.708.4-.37.87-.596,1.395-.833l1.347-.825.163-.105c.28-.181.629-.406,1.057-.547.686-.186,1.33-.565,1.881-.908.323-.15.62-.284.949-.341.406-.115.851-.254,1.292-.392.866-.271,1.762-.552,2.704-.718.165-.029.335-.079.508-.129.319-.092.649-.187.999-.198.116.004.191.005.265.005.298,0,.599-.026.9-.051.332-.028.667-.055,1-.055.203,0,.406.01.609.035.185.027.354.035.523.035.176,0,.353-.009.533-.017.205-.01.414-.019.63-.019l.155.002c.8.09,1.665.222,2.382.538.358.101.759.252,1.178.409.3.113.609.229.942.341.415.123.75.369,1.018.567l.219.158.039.042c.21.229.425.439.639.648.385.376.782.764,1.142,1.25.324.368.469.742.474,1.256.023.094.038.278.051.463.012.149.022.299.048.445.016.918-.127,1.691-.444,2.516l-.054.142-.123.091c-.043.099-.07.148-.098.188-.12.149-.213.257-.303.361-.268.311-.48.556-.638.887-.061.227-.291.357-.402.419l-.004-.005c-.079.081-.163.128-.22.16,0,0-.555.463-.822.684-.462.381-.938.774-1.412,1.192-.153.181-.39.309-.663.357-.274.072-.576.238-.896.415-.436.241-.931.514-1.557.625-.059.014-.242.115-.341.168-.846.38-1.482.493-2.218.623-.731.082-1.401.216-2.048.345-.326.065-.649.13-.974.188-.883.218-1.897.35-2.982.385-.247-.011-.442-.015-.637-.015-.37,0-.732.015-1.096.031-.275.012-.551.023-.835.029l-.061.002-.06-.013c-.867-.187-1.761-.324-2.707-.471-.711-.109-1.431-.22-2.157-.355-.847-.087-1.722-.242-2.886-.515-.496-.168-1.055-.275-1.595-.378-.173-.033-.344-.066-.508-.099-.477.03-.825.116-1.037.257-.146.149-.316.282-.496.42-.08.061-.163.125-.245.192-.135.243-.377.435-.583.545-.773.396-1.243.877-1.712,1.478-.218.311-.513.522-.75.692l-.112.081c-.669.568-1.322,1.123-1.752,1.812-.131.187-.26.372-.472.575-.477.383-.804.825-1.182,1.335-.126.171-.255.344-.391.518l-.037.057c-1.342,1.996-1.394,2.074-2.458,3.914-.142.331-.357.721-.546,1.066l-.103.188c-.403.625-.652,1.213-.917,1.836-.175.414-.356.84-.579,1.266-.02.095-.047.192-.076.287-.025.084-.052.167-.063.248-.021.314-.109.686-.194,1.046-.061.257-.124.52-.163.778-.069.37-.178.689-.284.998-.072.21-.144.414-.191.614-.003.033,0,.107,0,.18,0,.13,0,.259-.02.393-.02.093-.019.126-.02.156-.005.115-.011.265-.088.413-.308.753-.473,1.535-.505,2.388-.043.313-.098.498-.213.762-.195.668-.155,1.294-.029,2.009.009.261.041.43.072.606.04.227.08.463.089.725.071.621.256,1.267.452,1.952.094.329.188.658.27.99.27.508.453.964.63,1.405.135.333.264.657.427.985l.15.156.028.046c.646,1.041,1.176,1.832,1.719,2.565l1.085,1.264c.292.304.592.569.89.833l.136.121.053.177s.003-.004.005-.004c.013,0,.047.02.108.047l.066.029.055.045c.313.257.661.452,1.029.659.14.079.282.159.425.243.28.194.664.368,1.058.486l.08.023.069.049c.086.06.38.147.575.206.732.246,1.445.433,2.271.651l.205.054c.442.174.759.292,1.077.292.125,0,.249-.017.378-.054.112-.022.178-.027.25-.027.146,0,.332.024.518.052.054.002.145.015.234.03.061.009.118.021.176.021l.06-.026.588-.11c.707-.137,1.674-.326,2.233-.326h.022c.623-.154,1.318-.442,1.99-.72.505-.209.983-.405,1.422-.545.309-.162,1.446-.728,1.919-.924.127-.103.26-.202.394-.301.275-.205.536-.398.721-.617l.064-.077.089-.047c.316-.171.522-.415.549-.506l.031-.105.236-.278c.253-.297.469-.549.64-.794.19-.356.482-.774.791-1.125.275-.294.295-.409.296-.415l.032-.215.074-.054c.079-.366.194-.573.352-.856l.044-.079c.039-.164.107-.33.163-.467.013-.033.026-.062.037-.089.009-.559.083-1.11.154-1.643l.059-.456-.068-.38c-.072-.415-.323-.874-.653-1.199l-.12-.118-.029-.165c-.009-.052-.115-.194-.184-.287-.044-.06-.089-.12-.133-.184-.074-.039-.157-.089-.257-.148-.048-.029-.095-.058-.135-.081l-.042.007-.032-.043c-.147-.043-.304-.1-.468-.16-.296-.107-.602-.219-.864-.247l-.047-.005-.046-.014c-.211-.062-.424-.081-.712-.089l-1.522.269c-.196.034-.424.127-.482.166l-.214.129c-.238.136-.366.215-.458.384l-.056.104-.096.069c-.091.117-.204.258-.406.368-.374.169-.757.251-1.116.252-.386,0-.729-.097-.989-.278-.491-.345-.787-.885-.93-1.702-.061-.342.139-.629.225-.752.032-.131.057-.247.139-.364l.037-.054.05-.042c.284-.245.43-.458.462-.671l.01-.069.028-.064c.155-.356.4-.475.563-.554l.101-.052c.915-.444,1.908-.763,2.954-.947.516-.022.889-.089,1.455-.189.18-.032.361-.047.555-.047.215,0,.443.02.698.058.334.069.851.106,1.351.142l.143.011.174.086c.098.024.219.064.34.131.344.08.678.211.931.362.195.03.379.079.545.265.2.154.416.29.631.426.469.298.954.605,1.297,1.067l.041.057.026.064c.065.167.203.321.378.516l.113.126c.164.134.245.282.294.374l.029.039.055.103c.181.371.318.772.439,1.127l.089.258c.189.381.397.889.251,1.487.007.324.047.548.11.905.079.45.143.808.139,1.185.025.229-.043.425-.206.586-.096.191-.129.394-.171.645-.041.254-.089.543-.214.853l-.023.055-.033.049c-.322.461-.535.849-.685,1.254-.089.474-.391.936-.703,1.383-.022.096-.067.178-.129.267-.252.318-.479.617-.705.916-.695.916-1.415,1.863-2.299,2.606l-.057.048-.068.03c-.091.042-.124.071-.189.219l-.021.047-.029.042c-.051.071-.093.142-.135.209-.093.153-.19.31-.335.457-.084.103-.21.211-.351.281-.738.651-1.523.983-2.196,1.222-.39.077-.592.204-.899.398-.098.062-.202.127-.317.195-.298.167-.6.335-.916.335h-.023c-.152.027-.38.07-.452.105l-.1.075-.094.003c-.277.049-.565.162-.842.271-.121.048-.238.094-.35.134-.396.14-.806.284-1.373.385-.145.049-.437.099-.75.151-.365.06-.808.134-1.06.242l-.081.117-.355.042c-.034,0-.069-.003-.104-.007l-.164.017c-.825.08-1.679.164-2.505.181-.004.007-.098.015-.197.015ZM233.973,179.884c1.185,0,2.946-.054,4.557-.527.544-.168,1.09-.264,1.619-.357,1.081-.084,2.244-.48,3.606-1.217l.074-.04.084-.015c.132-.023.288-.161.453-.305.21-.185.445-.393.767-.506.153-.083.281-.157.394-.264l.05-.048.061-.033c.071-.04.141-.093.21-.145.108-.081.219-.16.331-.221h0c-.009,0,.007-.023.05-.083l.036-.051.05-.044c.193-.168.302-.365.411-.639.018-.172.054-.344.089-.501.017-.081.034-.157.044-.224.008-.137-.036-.24-.053-.257-.438-.305-.89-.622-1.433-1.103-.248-.055-.473-.113-.69-.169-.326-.085-.631-.165-.974-.217l-.577-.079c-.637-.09-1.238-.176-1.885-.176-.263,0-.533.014-.814.049-1.208.061-2.213.196-3.111.413-1.171.208-2.231.634-3.352,1.086l-.155.063c-.128.073-.328.16-.522.245-.19.082-.374.159-.521.25-.499.319-.976.542-1.482.779-.254.118-.515.24-.788.38-.415.225-1.04.589-1.561,1.088l-.04.038-.047.03c-.207.127-.403.271-.597.412-.361.263-.734.535-1.168.718-.171.145-.318.287-.466.428-.064.061-.128.123-.194.185.205.037.422.085.676.182.948.192,1.979.344,2.982.431l1.226.202c.325.093.596.103.882.114.258.009.517.021.782.07.067.017.109.02.145.023.065.005.148.01.243.031.201.003.405.005.609.005Z"/>
          <path class="b" d="M259.372,185.05c8.115-1.431,14.436,4.225,14.17,12.638-.266,8.414-7.088,16.309-15.202,17.739-8.115,1.431-14.422-4.149-14.156-12.562.265-8.414,7.075-16.384,15.189-17.815ZM258.457,210.921c5.607-.989,10.333-6.538,10.511-12.426.179-5.888-4.107-9.924-9.714-8.936-5.606.989-10.319,6.612-10.498,12.5-.179,5.888,4.095,9.85,9.7,8.861Z"/>
          <path class="b" d="M279.506,183.707c.048-1.453,1.245-2.427,2.352-2.622,1.18-.208,2.27.362,2.222,1.815l-.209,5.284c2.17-4.946,5.732-8.465,10.158-9.245,2.95-.52,4.187,1.316,4.191,3.064-.048,1.453-1.194,2.721-2.448,2.941-.59.105-1.218-.013-1.679-.464-.447-.378-1.114-.716-1.925-.574-5.237.924-8.476,10.166-8.655,14.761l-.349,10.101c-.035,1.528-1.233,2.499-2.412,2.707-1.107.195-2.196-.372-2.162-1.9l.916-25.868Z"/>
          <path class="b" d="M297.312,193.497c.314-8.573,5.895-16.176,14.525-17.698,8.041-1.418,11.663,2.736,11.498,7.405-.191,4.521-3.864,9.58-10.207,10.698-2.213.39-4.577.351-6.283-.262-2.669-.899-1.096-5.358,1.941-4.524,1.198.321,2.838.564,4.608.252,3.394-.599,5.255-2.98,5.334-5.124.099-2.451-1.843-4.846-6.934-3.948-5.827,1.027-9.729,6.507-9.907,12.394-.191,5.814,3.197,9.933,8.668,9.044,3.319-.585,5.216-1.908,7.716-4.555,2.021-2.335,4.924-.107,2.845,2.769-2.638,3.584-6.622,5.579-10.531,6.268-8.188,1.444-13.563-4.452-13.271-12.719Z"/>
        </g>
      </g>
      <path class="b" d="M323.34,251.952v.034c0,1.069-.714,2.011-1.748,2.283-1.948.512-4.471.782-5.927.782-3.64,0-6.441-2.31-9.801-2.31-2.003,0-4.604,1.332-6.769,2.603-1.265.743-2.893.288-3.574-1.012h0c-.621-1.188-.225-2.647.914-3.354,8.364-5.197,23.129-16.589,17.809-25.243-1.493-2.429-4.215-3.951-7.061-3.781-3.881.233-6.78,3.164-6.78,7.125,0,1.523.421,2.885,1.328,3.952.776.913.84,2.229.074,3.151h0c-.927,1.116-2.631,1.168-3.616.103-1.806-1.951-2.826-4.48-2.826-7.206,0-6.79,5.67-11.761,12.321-11.761,7.77,0,12.741,4.62,12.741,12.461,0,7.701-7.3,15.306-13.301,18.901.49-.07.979-.14,1.47-.14,2.66,0,4.69,1.611,7.421,1.611,1.225,0,2.918-.143,4.463-.471,1.469-.312,2.862.769,2.862,2.271Z"/>
      <g>
        <g>
          <path class="b" d="M232.34,250.911c0-.66-.006-1.321.002-1.982.005-.393.182-.644.504-.761.458-.166.945.082,1.064.555.035.138.039.287.039.43.003,1.086,0,2.172.004,3.258,0,.125.01.255.047.373.068.215.236.315.46.304.217-.01.375-.137.422-.356.022-.105.023-.216.023-.324.002-.543-.003-1.086.003-1.629.005-.525.36-.889.855-.892.499-.003.86.358.867.88.007.534.002,1.068.003,1.602,0,.099-.002.2.012.298.032.234.184.385.404.412.212.027.427-.083.503-.291.048-.133.067-.282.07-.424.009-.543-.006-1.086.01-1.629.016-.52.369-.833.864-.797.402.03.718.32.73.743.021.75.078,1.51-.011,2.251-.194,1.61-1.83,2.253-3.089,1.681-.264-.12-.451-.119-.703.005-1.24.612-2.733-.097-3.039-1.433-.036-.157-.044-.323-.045-.484-.005-.597-.002-1.195-.002-1.792h.002Z"/>
          <path class="b" d="M210.913,252.291c0,.561.003,1.121-.001,1.682-.005.532-.272.823-.755.835-.494.011-.846-.308-.851-.821-.011-1.284-.035-2.569.005-3.852.048-1.528,1.738-2.507,3.117-1.823.269.133.466.12.73-.001,1.573-.721,3.093.542,3.048,1.92-.022.678,0,1.357-.009,2.035-.005.352-.215.626-.521.717-.347.104-.734-.01-.911-.313-.086-.148-.129-.339-.135-.512-.018-.506,0-1.013-.012-1.519-.004-.169-.031-.344-.087-.502-.071-.201-.261-.304-.447-.29-.197.014-.366.159-.413.374-.025.113-.03.233-.031.35-.003.534.002,1.067-.003,1.601-.006.544-.333.883-.848.89-.507.006-.858-.331-.874-.872-.016-.524-.006-1.049-.007-1.574,0-.063,0-.127,0-.19-.007-.358-.183-.586-.46-.595-.262-.009-.504.227-.519.561-.023.506-.011,1.012-.014,1.519,0,.127,0,.253,0,.38Z"/>
          <path class="b" d="M259.134,248.1c.427,0,.854-.01,1.28.002,1.222.033,2.184,1.064,2.097,2.27-.051.701-.399,1.247-.995,1.63-.069.044-.138.088-.212.122-.171.079-.152.17-.034.286.33.324.654.653.983.977.154.152.25.327.268.547.028.342-.096.606-.398.77-.297.162-.597.137-.875-.05-.104-.07-.194-.164-.283-.253-.624-.619-1.249-1.236-1.866-1.863-.158-.161-.33-.238-.554-.231-.29.009-.581.007-.871-.002-.496-.015-.802-.308-.81-.765-.008-.485.275-.804.776-.831.417-.022.835-.009,1.252-.01.454-.002.908.004,1.362-.005.267-.005.435-.128.503-.339.074-.23-.041-.49-.284-.571-.16-.053-.337-.071-.507-.073-.762-.008-1.525.001-2.288-.006-.561-.005-.858-.336-.81-.883.029-.331.241-.603.584-.663.301-.052.613-.05.92-.06.254-.009.508-.002.763-.002v.002Z"/>
          <path class="b" d="M268.459,252.05c0,.66.01,1.321-.003,1.981-.009.493-.334.784-.826.774-.392-.008-.675-.233-.751-.617-.028-.141-.031-.288-.031-.432-.003-1.059-.021-2.118.006-3.175.015-.598-.517-1.068-.965-1.092-.587-.031-1.045.326-1.145.931-.026.16-.034.324-.034.486-.003.968-.001,1.936-.002,2.904,0,.099.002.199-.005.298-.031.415-.308.68-.725.698-.45.02-.772-.226-.833-.645-.015-.107-.015-.217-.015-.325,0-1.185-.003-2.37,0-3.556.003-1.281.911-2.182,2.2-2.188.345-.001.69-.004,1.035.001,1.132.017,2.079.956,2.094,2.082.009.624.002,1.248.002,1.873h-.002Z"/>
          <path class="b" d="M275.986,253.969c.01.361-.116.613-.408.75-.301.141-.606.127-.87-.089-.168-.137-.314-.3-.47-.452-.487-.474-.977-.944-1.458-1.423-.143-.143-.247-.131-.385.008-.586.592-1.176,1.181-1.772,1.763-.363.355-.861.356-1.191.02-.323-.329-.316-.805.041-1.164.51-.514,1.037-1.013,1.552-1.522.483-.477.46-.383.003-.843-.498-.501-1.001-.998-1.5-1.497-.22-.22-.322-.482-.252-.79.128-.558.771-.808,1.246-.486.097.066.181.15.265.233,1.619,1.609,3.236,3.22,4.857,4.828.2.198.363.407.343.665Z"/>
          <path class="b" d="M282.39,254.755c-.221.024-.415-.087-.593-.263-.586-.58-1.178-1.154-1.771-1.727-.207-.2-.236-.2-.442.004-.567.561-1.132,1.123-1.695,1.688-.173.174-.365.292-.62.297-.378.007-.642-.141-.771-.444-.138-.323-.059-.711.188-.952.564-.551,1.128-1.102,1.688-1.656.285-.281.283-.301.002-.582-.551-.551-1.112-1.093-1.653-1.653-.464-.481-.235-1.244.405-1.385.303-.067.553.054.763.261.363.355.72.715,1.08,1.073,1.285,1.278,2.569,2.556,3.854,3.834.064.064.132.125.189.195.051.062.101.13.134.202.252.552-.113,1.108-.76,1.109Z"/>
          <path class="b" d="M244.153,251.45c0,.443.006.887-.002,1.33-.004.21.06.327.285.383.434.108.641.462.588.938-.043.382-.343.685-.751.693-.772.016-1.546.038-2.315-.006-1.062-.061-1.906-.942-1.968-2.013-.019-.322-.019-.659.053-.97.238-1.022,1.092-1.669,2.145-1.643.234.006.289-.101.338-.287.086-.322.288-.542.637-.588.348-.047.664.024.851.347.082.141.125.321.131.486.018.443.006.886.006,1.33h.002ZM242.528,252.507c.002-.35-.207-.616-.48-.609-.284.007-.483.303-.443.658.033.293.235.502.478.496.257-.006.444-.234.446-.545Z"/>
          <path class="b" d="M222.636,251.444c0-.85-.01-1.701.003-2.551.009-.599.57-.962,1.102-.726.302.134.46.376.467.705.007.353.015.706.003,1.058-.015.462.137.832.479,1.159.772.739,1.521,1.504,2.278,2.259.404.403.448.886.116,1.223-.333.338-.86.301-1.257-.091-.368-.363-.733-.728-1.1-1.092-.051-.051-.101-.105-.157-.15-.187-.152-.319-.101-.343.148-.021.215-.008.434-.018.65-.021.461-.359.776-.813.766-.433-.01-.723-.268-.751-.7-.021-.315-.01-.633-.011-.949-.001-.57,0-1.14,0-1.71h.002Z"/>
          <path class="b" d="M251.694,252.063c0-.588.004-1.176,0-1.763-.01-1.32,1.085-2.257,2.227-2.206.489.022.98-.006,1.47.01.569.018.938.461.831.969-.079.375-.351.615-.747.628-.435.014-.871-.001-1.307.012-.16.005-.333.026-.474.094-.294.139-.389.405-.388.719.003,1.067.001,2.134,0,3.201,0,.109.002.217-.003.325-.021.452-.334.77-.774.788-.419.017-.783-.304-.823-.743-.02-.215-.01-.434-.011-.651-.001-.461,0-.922,0-1.383Z"/>
          <path class="b" d="M220.285,251.484c0,.831.007,1.663-.002,2.494-.006.536-.347.854-.86.828-.398-.02-.677-.283-.738-.703-.014-.098-.013-.198-.013-.298,0-1.536-.002-3.073.002-4.609,0-.17.012-.345.051-.51.081-.342.418-.586.765-.578.373.008.674.234.756.588.032.139.039.286.04.43.004.786.002,1.572.002,2.359h-.001Z"/>
          <path class="b" d="M245.339,256.472c-.317-.013-.558-.142-.712-.403-.16-.273-.149-.554.013-.824.051-.084.117-.162.187-.231,1.076-1.063,2.154-2.125,3.231-3.186.24-.236.524-.322.848-.217.301.097.49.307.546.619.052.291-.062.532-.263.736-.312.315-.628.628-.943.941-.751.748-1.504,1.494-2.253,2.244-.187.187-.401.307-.656.323Z"/>
          <path class="b" d="M231.832,252.366c-.094.178-.152.392-.288.529-1.1,1.116-2.211,2.221-3.326,3.322-.288.284-.748.291-1.044.045-.315-.262-.387-.733-.16-1.077.044-.067.1-.129.157-.186,1.058-1.056,2.117-2.11,3.174-3.167.183-.183.395-.279.656-.275.48.006.782.305.831.811Z"/>
          <path class="b" d="M218.208,252.382c0,.542.007,1.085-.002,1.627-.009.518-.346.823-.857.797-.366-.019-.634-.235-.715-.594-.028-.122-.035-.251-.036-.376-.003-.976-.003-1.952,0-2.928,0-.125.008-.255.04-.375.108-.408.439-.629.857-.589.407.039.698.336.708.757.013.56.003,1.12.003,1.681h.002Z"/>
          <path class="b" d="M240.625,249.158c-.003-.481.333-.836.799-.842.484-.006.866.373.862.854-.004.461-.364.804-.844.804-.487,0-.814-.326-.817-.817Z"/>
          <path class="b" d="M226.218,250.046c-.005.445-.358.793-.797.785-.452-.008-.804-.349-.805-.781-.001-.456.351-.812.803-.813.461,0,.805.347.8.809Z"/>
          <path class="b" d="M251.292,248.918c0,.451-.339.786-.79.783-.478-.003-.811-.328-.813-.794-.001-.422.37-.794.798-.8.451-.005.805.351.805.81Z"/>
          <path class="b" d="M238.421,249.701c-.447.001-.785-.335-.79-.788-.005-.449.355-.808.808-.806.424.002.79.37.795.799.006.454-.341.793-.813.794Z"/>
          <path class="b" d="M282.573,249.68c-.003.447-.346.782-.796.778-.457-.005-.8-.337-.803-.78-.004-.442.371-.821.805-.816.46.005.797.352.794.818Z"/>
          <path class="b" d="M218.205,248.909c.003.451-.337.794-.788.792-.465-.001-.803-.325-.811-.776-.007-.434.349-.807.78-.818.455-.011.815.342.818.801Z"/>
          <path class="b" d="M273.768,249.702c-.005-.449.331-.791.784-.798.469-.007.81.328.813.799.003.421-.347.781-.773.794-.454.014-.819-.337-.824-.794Z"/>
          <path class="b" d="M258.476,254.017c.003.449-.337.784-.796.785-.461.001-.803-.329-.804-.778-.001-.434.358-.808.784-.818.437-.01.814.364.817.81Z"/>
          <path class="b" d="M216.199,254.017c.003.484-.29.786-.77.791-.482.005-.795-.293-.802-.764-.007-.464.342-.829.79-.828.45.001.778.337.782.8Z"/>
          <path class="b" d="M227.707,252.196c.003-.455.341-.795.789-.792.436.002.808.364.811.789.003.431-.386.812-.824.807-.449-.005-.779-.347-.776-.804Z"/>
          <path class="b" d="M266.555,252.382c-.002.475-.333.799-.808.793-.45-.006-.791-.349-.791-.796,0-.438.348-.767.813-.768.483,0,.789.298.787.771Z"/>
          <path class="b" d="M221.309,254.808c-.462-.005-.79-.333-.788-.787.002-.437.36-.798.793-.799.442-.001.812.374.805.819-.006.449-.347.772-.81.767Z"/>
          <path class="b" d="M246.161,251.448c.48.004.782.308.774.782-.007.463-.329.781-.791.782-.446.001-.802-.344-.805-.78-.003-.457.344-.787.822-.784Z"/>
        </g>
        <g>
          <path class="b" d="M241.564,239.143c.329.264.493.653.493,1.166,0,.503-.159.891-.477,1.163-.318.271-.791.407-1.418.407h-1.046v2.152h-.683v-5.286h1.66c.652,0,1.142.132,1.471.397ZM240.207,241.307c.197,0,.369-.024.516-.072.146-.048.267-.115.364-.201.096-.085.168-.19.216-.313.048-.123.072-.261.072-.412,0-.327-.1-.574-.299-.74-.2-.166-.524-.249-.974-.249h-.985v1.986h1.091Z"/>
          <path class="b" d="M243.051,240.257h.637v.416h.03c.111-.136.244-.249.398-.34.154-.091.335-.136.542-.136.253,0,.455.05.607.151.151.101.283.234.394.4l-.463.347c-.071-.121-.163-.215-.277-.283-.113-.068-.246-.102-.398-.102-.097,0-.194.023-.292.068-.099.046-.189.11-.269.192-.081.083-.147.185-.197.306-.05.121-.076.259-.076.415v2.341h-.637v-3.776Z"/>
          <path class="b" d="M249.279,243.255c-.126.297-.323.511-.591.642-.267.131-.571.196-.909.196-.334,0-.635-.078-.906-.234-.27-.156-.456-.383-.557-.68-.05-.151-.085-.304-.102-.46-.018-.156-.027-.347-.027-.574s.009-.416.027-.57c.017-.154.052-.309.102-.465.101-.297.286-.524.554-.68.267-.156.568-.234.902-.234.167,0,.326.019.478.056.151.038.29.096.416.174.127.078.238.174.334.287.096.113.169.246.22.397.056.156.092.311.11.465.017.153.026.343.026.57v.197h-2.517c.005.186.014.337.027.453.013.116.044.224.095.324.071.141.174.253.311.336.137.083.306.125.508.125.222,0,.416-.045.583-.136.167-.09.301-.239.402-.445l.516.257ZM246.869,241.473c-.015.095-.025.214-.031.355h1.865c-.005-.141-.014-.259-.027-.355-.013-.096-.044-.194-.094-.295-.066-.136-.164-.248-.296-.336-.131-.088-.303-.132-.516-.132s-.384.044-.515.132c-.131.088-.23.2-.296.336-.045.101-.076.199-.091.295Z"/>
          <path class="b" d="M250.854,243.285c.076.07.159.128.25.174.09.046.189.078.296.098.106.02.214.03.326.03.106,0,.209-.013.307-.042.098-.027.186-.068.261-.121.076-.053.136-.115.182-.188.046-.073.068-.158.068-.253,0-.191-.054-.329-.163-.415-.109-.086-.277-.139-.504-.159l-.447-.038c-.197-.015-.367-.052-.511-.109-.144-.058-.263-.133-.357-.227-.093-.093-.163-.203-.209-.329-.045-.126-.068-.265-.068-.416,0-.181.038-.34.113-.475.076-.136.178-.249.307-.34.129-.091.278-.16.447-.208.17-.047.347-.072.534-.072.197,0,.371.021.524.064.151.043.284.099.398.17.114.07.209.15.284.238.076.088.137.178.182.268l-.508.279c-.03-.061-.07-.121-.117-.182-.048-.06-.108-.115-.178-.162-.071-.048-.157-.087-.257-.117-.101-.03-.218-.045-.349-.045-.227,0-.408.047-.542.143-.134.096-.201.237-.201.423,0,.075.009.143.027.204.017.06.048.113.091.158.043.046.102.083.178.113.076.03.17.05.281.06l.447.038c.182.015.349.05.5.105.151.056.282.129.39.219.109.09.194.201.254.333.061.131.091.282.091.453,0,.181-.041.342-.121.483-.081.141-.19.261-.326.359-.137.099-.294.173-.474.223-.18.05-.367.075-.564.075-.207,0-.393-.02-.557-.06-.164-.04-.31-.095-.436-.166-.127-.07-.235-.154-.326-.253-.09-.098-.166-.203-.227-.313l.516-.272c.05.096.114.179.19.249Z"/>
          <path class="b" d="M257.092,243.255c-.126.297-.323.511-.591.642-.268.131-.571.196-.909.196-.334,0-.635-.078-.906-.234-.27-.156-.456-.383-.557-.68-.05-.151-.085-.304-.102-.46-.018-.156-.027-.347-.027-.574s.009-.416.027-.57c.017-.154.052-.309.102-.465.101-.297.286-.524.554-.68.267-.156.569-.234.902-.234.167,0,.326.019.478.056.151.038.29.096.416.174.127.078.238.174.334.287.096.113.169.246.22.397.056.156.092.311.11.465.017.153.026.343.026.57v.197h-2.517c.005.186.014.337.027.453.013.116.044.224.095.324.071.141.174.253.311.336.137.083.306.125.508.125.222,0,.416-.045.583-.136.167-.09.301-.239.402-.445l.516.257ZM254.681,241.473c-.015.095-.025.214-.031.355h1.865c-.005-.141-.014-.259-.027-.355-.013-.096-.044-.194-.095-.295-.066-.136-.164-.248-.296-.336-.131-.088-.303-.132-.515-.132s-.384.044-.515.132c-.131.088-.23.2-.296.336-.045.101-.076.199-.091.295Z"/>
          <path class="b" d="M258.18,240.257h.637v.416h.03c.131-.146.282-.262.451-.348.169-.085.365-.128.587-.128.192,0,.369.025.531.076.162.05.3.132.417.245.116.113.208.26.276.442.068.181.103.4.103.657v2.416h-.637v-2.341c0-.191-.023-.35-.068-.475-.045-.126-.106-.227-.182-.302-.076-.076-.164-.129-.266-.159s-.21-.045-.326-.045c-.142,0-.268.029-.379.086-.111.058-.207.132-.288.223-.081.09-.143.195-.186.313-.043.119-.064.238-.064.359v2.341h-.637v-3.776Z"/>
          <path class="b" d="M263.213,243.028c0,.076.007.147.023.215.015.068.039.127.072.178s.076.089.129.117c.053.028.117.042.193.042h.387v.513h-.553c-.147,0-.275-.023-.387-.068-.111-.046-.203-.11-.277-.192-.073-.083-.129-.188-.166-.314-.038-.126-.057-.267-.057-.423v-2.325h-.591v-.514h.591v-1.133h.637v1.133h.803v.514h-.803v2.258Z"/>
          <path class="b" d="M267.79,243.255c-.126.297-.323.511-.591.642-.267.131-.571.196-.909.196-.334,0-.636-.078-.906-.234-.27-.156-.456-.383-.557-.68-.05-.151-.084-.304-.102-.46-.018-.156-.027-.347-.027-.574s.009-.416.027-.57c.018-.154.052-.309.102-.465.101-.297.286-.524.554-.68.268-.156.569-.234.902-.234.167,0,.326.019.478.056.151.038.29.096.416.174.127.078.238.174.334.287.096.113.169.246.22.397.056.156.092.311.11.465.017.153.026.343.026.57v.197h-2.517c.005.186.014.337.027.453.013.116.044.224.095.324.071.141.174.253.311.336.137.083.306.125.508.125.222,0,.416-.045.583-.136.167-.09.301-.239.402-.445l.516.257ZM265.38,241.473c-.015.095-.025.214-.031.355h1.865c-.005-.141-.014-.259-.027-.355-.013-.096-.044-.194-.094-.295-.066-.136-.164-.248-.296-.336-.131-.088-.303-.132-.516-.132s-.384.044-.515.132c-.131.088-.23.2-.296.336-.045.101-.076.199-.091.295Z"/>
          <path class="b" d="M271.85,244.033h-.637v-.416h-.03c-.141.176-.302.3-.481.37-.18.07-.365.106-.557.106-.147,0-.287-.016-.421-.049-.134-.033-.257-.085-.371-.155-.113-.07-.215-.161-.303-.272-.089-.111-.163-.244-.224-.4-.056-.151-.091-.314-.106-.491-.015-.176-.023-.37-.023-.581s.007-.405.023-.581c.015-.176.05-.34.106-.491.061-.156.135-.29.224-.4.089-.111.19-.202.303-.272.114-.07.237-.122.371-.155.134-.033.274-.049.421-.049.197,0,.383.036.56.109.177.073.337.195.478.367h.03v-1.926h.637v5.286ZM271.214,241.691c0-.141-.026-.271-.076-.393-.051-.121-.117-.224-.201-.309-.083-.086-.182-.154-.296-.205-.113-.05-.236-.075-.367-.075-.192,0-.357.039-.497.117-.139.078-.246.205-.322.382-.051.116-.081.245-.091.385-.01.141-.015.325-.015.551s.005.41.015.551c.01.141.04.27.091.385.076.176.183.303.322.382.139.078.304.117.497.117.131,0,.254-.025.367-.075.114-.05.213-.119.296-.205.084-.085.15-.188.201-.309.05-.121.076-.252.076-.393v-.906Z"/>
          <path class="b" d="M275.216,238.747h.637v1.926h.03c.141-.172.301-.294.477-.367.177-.073.364-.109.561-.109.147,0,.287.016.421.049.133.033.257.085.371.155.113.07.214.161.303.272.089.111.163.244.224.4.055.151.09.314.106.491.015.176.023.37.023.581s-.008.406-.023.581c-.015.176-.051.34-.106.491-.061.156-.135.29-.224.4-.089.111-.19.202-.303.272-.114.07-.238.122-.371.155-.134.033-.274.049-.421.049-.192,0-.377-.035-.557-.106-.18-.07-.34-.194-.481-.37h-.03v.416h-.637v-5.286ZM275.853,242.598c0,.141.025.271.076.393.05.121.117.224.201.309.083.086.183.154.299.205.117.05.237.075.364.075.192,0,.357-.039.497-.117.139-.078.246-.205.322-.382.05-.116.081-.244.091-.385.01-.141.015-.325.015-.551s-.005-.41-.015-.551c-.01-.141-.041-.269-.091-.385-.076-.176-.183-.303-.322-.382-.139-.078-.305-.117-.497-.117-.127,0-.247.025-.364.075-.116.051-.216.119-.299.205-.084.085-.151.188-.201.309-.05.121-.076.252-.076.393v.906Z"/>
          <path class="b" d="M278.872,240.257h.682l1.039,2.938,1.008-2.938h.667l-1.471,4.085c-.07.201-.145.376-.223.525-.078.148-.168.273-.27.373-.101.101-.217.176-.349.227-.131.05-.287.076-.47.076h-.386v-.514h.257c.131,0,.245-.023.341-.068.096-.045.18-.111.254-.196.073-.086.136-.188.189-.306.053-.118.1-.253.141-.403l-1.411-3.798Z"/>
        </g>
      </g>
      <g>
        <path class="b" d="M20.896,170.716c.224-.378.529-.676.914-.894s.811-.326,1.278-.326c.357,0,.686.064.986.192.299.129.557.298.769.509.213.211.377.441.491.694l-.906.35c-.119-.247-.298-.45-.537-.608-.238-.158-.506-.236-.804-.236-.279,0-.534.07-.766.209-.231.14-.413.329-.546.566-.133.239-.199.505-.199.797s.066.558.199.797c.133.238.315.427.546.566.232.14.487.209.766.209.298,0,.566-.078.804-.236.239-.158.417-.361.537-.608l.906.35c-.114.252-.278.483-.491.694-.212.211-.47.38-.769.509-.301.127-.629.192-.986.192-.467,0-.892-.109-1.278-.326s-.69-.515-.914-.894c-.224-.377-.337-.796-.337-1.253s.113-.876.337-1.253Z"/>
        <path class="b" d="M26.591,170.716c.223-.378.527-.676.914-.894.388-.217.815-.326,1.282-.326s.895.109,1.282.326c.388.217.691.515.914.894.223.377.333.796.333,1.253s-.11.876-.333,1.253c-.223.378-.526.676-.914.894-.386.217-.815.326-1.282.326s-.894-.109-1.282-.326c-.386-.217-.691-.515-.914-.894-.221-.377-.333-.796-.333-1.253s.111-.876.333-1.253ZM27.474,172.767c.133.238.314.427.543.566.228.14.486.209.769.209.279,0,.535-.07.766-.209s.413-.329.546-.566c.133-.239.2-.505.2-.797s-.067-.558-.2-.797c-.133-.238-.314-.427-.542-.566-.229-.14-.486-.209-.77-.209-.279,0-.534.07-.766.209-.231.14-.413.329-.546.566-.133.239-.199.505-.199.797s.066.558.199.797Z"/>
        <path class="b" d="M32.517,169.565h.929v4.809h-.929v-4.809ZM32.841,169.565h.962l1.821,4.466h-.845l1.821-4.466h.907l-1.951,4.809h-.764l-1.951-4.809ZM36.901,169.565h.927v4.809h-.927v-4.809Z"/>
        <path class="b" d="M39.24,169.565h2.034c.348,0,.656.068.925.207.267.137.475.329.621.577.146.247.22.522.22.824,0,.307-.072.581-.216.821-.145.24-.352.428-.619.564-.268.134-.578.203-.931.203h-1.051v1.614h-.984v-4.809ZM41.666,171.794c.114-.062.203-.148.264-.258.062-.109.093-.233.093-.37,0-.142-.031-.268-.093-.378s-.15-.196-.264-.258c-.115-.062-.246-.093-.392-.093h-1.051v1.451h1.051c.146,0,.276-.031.392-.094Z"/>
        <path class="b" d="M44.06,169.565h.984v3.937h2.218v.872h-3.202v-4.809Z"/>
        <path class="b" d="M48.338,169.565h.984v4.809h-.984v-4.809Z"/>
        <path class="b" d="M50.871,170.716c.224-.378.529-.676.914-.894s.811-.326,1.278-.326c.357,0,.686.064.986.192.299.129.557.298.769.509.213.211.377.441.491.694l-.906.35c-.119-.247-.298-.45-.537-.608-.238-.158-.506-.236-.804-.236-.279,0-.534.07-.766.209-.231.14-.413.329-.546.566-.133.239-.199.505-.199.797s.066.558.199.797c.133.238.315.427.546.566.232.14.487.209.766.209.298,0,.566-.078.804-.236.239-.158.417-.361.537-.608l.906.35c-.114.252-.278.483-.491.694-.212.211-.47.38-.769.509-.301.127-.629.192-.986.192-.467,0-.892-.109-1.278-.326s-.69-.515-.914-.894c-.224-.377-.337-.796-.337-1.253s.113-.876.337-1.253Z"/>
        <path class="b" d="M57.914,169.565h1.086l1.951,4.809h-1.052l-1.896-4.796h.852l-1.903,4.796h-.99l1.952-4.809ZM57.117,172.458h2.678v.872h-2.678v-.872Z"/>
        <path class="b" d="M62.497,170.437h-1.471v-.872h3.93v.872h-1.477v3.937h-.982v-3.937Z"/>
        <path class="b" d="M65.99,169.565h.984v4.809h-.984v-4.809Z"/>
        <path class="b" d="M68.518,170.716c.223-.378.527-.676.914-.894.388-.217.815-.326,1.282-.326s.895.109,1.282.326c.388.217.691.515.914.894.223.377.333.796.333,1.253s-.11.876-.333,1.253c-.223.378-.526.676-.914.894-.386.217-.815.326-1.282.326s-.894-.109-1.282-.326c-.386-.217-.691-.515-.914-.894-.221-.377-.333-.796-.333-1.253s.111-.876.333-1.253ZM69.401,172.767c.133.238.314.427.543.566.228.14.486.209.769.209.279,0,.535-.07.766-.209s.413-.329.546-.566c.133-.239.2-.505.2-.797s-.067-.558-.2-.797c-.133-.238-.314-.427-.542-.566-.229-.14-.486-.209-.77-.209-.279,0-.534.07-.766.209-.231.14-.413.329-.546.566-.133.239-.199.505-.199.797s.066.558.199.797Z"/>
        <path class="b" d="M74.446,169.565h.955l3.27,4.397-.907.275v-4.673h.984v4.809h-.955l-3.277-4.397.914-.275v4.673h-.984v-4.809Z"/>
        <path class="b" d="M83.406,170.437h-1.471v-.872h3.93v.872h-1.477v3.937h-.982v-3.937Z"/>
        <path class="b" d="M86.9,169.565h.984v1.971h2.226v-1.971h.982v4.809h-.982v-1.971h-2.226v1.971h-.984v-4.809Z"/>
        <path class="b" d="M94.009,169.565h1.086l1.951,4.809h-1.052l-1.896-4.796h.852l-1.903,4.796h-.99l1.952-4.809ZM93.212,172.458h2.678v.872h-2.678v-.872Z"/>
        <path class="b" d="M98.592,170.437h-1.471v-.872h3.93v.872h-1.477v3.937h-.982v-3.937Z"/>
        <path class="b" d="M105.408,170.437h-1.471v-.872h3.93v.872h-1.477v3.937h-.982v-3.937Z"/>
        <path class="b" d="M108.721,170.716c.223-.378.527-.676.914-.894.388-.217.815-.326,1.282-.326s.895.109,1.282.326c.388.217.691.515.914.894.223.377.333.796.333,1.253s-.11.876-.333,1.253c-.223.378-.526.676-.914.894-.386.217-.815.326-1.282.326s-.894-.109-1.282-.326c-.386-.217-.691-.515-.914-.894-.221-.377-.333-.796-.333-1.253s.111-.876.333-1.253ZM109.604,172.767c.133.238.314.427.543.566.228.14.486.209.769.209.279,0,.535-.07.766-.209s.413-.329.546-.566c.133-.239.2-.505.2-.797s-.067-.558-.2-.797c-.133-.238-.314-.427-.542-.566-.229-.14-.486-.209-.77-.209-.279,0-.534.07-.766.209-.231.14-.413.329-.546.566-.133.239-.199.505-.199.797s.066.558.199.797Z"/>
        <path class="b" d="M115.565,169.565v2.92c0,.201.046.382.134.542.09.161.217.287.385.378s.361.137.581.137c.219,0,.412-.046.577-.137s.293-.217.384-.378c.093-.16.138-.341.138-.542v-2.92h.982v2.92c0,.376-.09.713-.268,1.01s-.425.53-.742.696c-.315.168-.672.251-1.071.251s-.757-.083-1.072-.251c-.317-.166-.564-.399-.742-.696s-.268-.635-.268-1.01v-2.92h.982Z"/>
        <path class="b" d="M120.232,170.716c.224-.378.529-.676.914-.894s.811-.326,1.278-.326c.357,0,.686.064.986.192.299.129.557.298.769.509.213.211.377.441.491.694l-.906.35c-.119-.247-.298-.45-.537-.608-.238-.158-.506-.236-.804-.236-.279,0-.534.07-.766.209-.231.14-.413.329-.546.566-.133.239-.199.505-.199.797s.066.558.199.797c.133.238.315.427.546.566.232.14.487.209.766.209.298,0,.566-.078.804-.236.239-.158.417-.361.537-.608l.906.35c-.114.252-.278.483-.491.694-.212.211-.47.38-.769.509-.301.127-.629.192-.986.192-.467,0-.892-.109-1.278-.326s-.69-.515-.914-.894c-.224-.377-.337-.796-.337-1.253s.113-.876.337-1.253Z"/>
        <path class="b" d="M125.843,169.565h.984v1.971h2.226v-1.971h.982v4.809h-.982v-1.971h-2.226v1.971h-.984v-4.809Z"/>
        <path class="b" d="M131.448,169.565h3.202v.872h-2.218v1.099h2.15v.867h-2.15v1.099h2.218v.872h-3.202v-4.809Z"/>
        <path class="b" d="M136.844,173.416c.153.121.364.181.629.181.156,0,.294-.024.415-.075.122-.05.216-.118.282-.203.067-.085.101-.18.101-.284,0-.125-.043-.225-.127-.303s-.192-.141-.319-.188c-.129-.048-.307-.102-.537-.162-.334-.087-.609-.174-.828-.264-.217-.089-.404-.229-.56-.423-.156-.192-.233-.451-.233-.776,0-.266.078-.507.233-.726.156-.217.369-.388.639-.511.271-.123.569-.185.894-.185.33,0,.625.058.886.172.262.114.471.272.629.474s.255.433.291.694l-.989.2c-.036-.211-.129-.38-.278-.506-.149-.125-.341-.188-.574-.188-.142,0-.267.023-.374.068s-.191.107-.251.185c-.059.078-.089.168-.089.268,0,.114.04.208.119.282.081.072.183.131.306.174.123.044.295.095.515.154.344.087.625.178.845.272s.409.242.57.443c.16.201.24.474.24.817,0,.271-.081.514-.24.731-.161.219-.38.39-.66.515-.279.126-.59.189-.934.189-.518,0-.946-.121-1.284-.364-.34-.243-.541-.568-.605-.976l.989-.2c.047.22.146.39.299.513Z"/>
        <path class="b" d="M142.896,170.716c.223-.378.527-.676.914-.894.388-.217.815-.326,1.282-.326s.895.109,1.282.326c.388.217.691.515.914.894.223.377.333.796.333,1.253s-.11.876-.333,1.253c-.223.378-.526.676-.914.894-.386.217-.815.326-1.282.326s-.894-.109-1.282-.326c-.386-.217-.691-.515-.914-.894-.221-.377-.333-.796-.333-1.253s.111-.876.333-1.253ZM143.779,172.767c.133.238.314.427.543.566.228.14.486.209.769.209.279,0,.535-.07.766-.209s.413-.329.546-.566c.133-.239.2-.505.2-.797s-.067-.558-.2-.797c-.133-.238-.314-.427-.542-.566-.229-.14-.486-.209-.77-.209-.279,0-.534.07-.766.209-.231.14-.413.329-.546.566-.133.239-.199.505-.199.797s.066.558.199.797Z"/>
        <path class="b" d="M148.822,169.565h.955l3.27,4.397-.907.275v-4.673h.984v4.809h-.955l-3.277-4.397.914-.275v4.673h-.984v-4.809Z"/>
        <path class="b" d="M20.353,177.81h1.045l1.766,4.796h-.784l1.759-4.796h.996l-1.848,4.809h-1.086l-1.849-4.809Z"/>
        <path class="b" d="M27.219,177.81h1.086l1.951,4.809h-1.052l-1.896-4.796h.852l-1.903,4.796h-.99l1.952-4.809ZM26.422,180.703h2.678v.872h-2.678v-.872Z"/>
        <path class="b" d="M31.221,177.81h2.069c.334,0,.631.067.89.199.258.134.458.318.597.554.14.235.209.498.209.786,0,.293-.07.557-.209.79-.14.233-.34.415-.597.546-.259.13-.556.196-.89.196h-1.086v1.738h-.984v-4.809ZM33.643,179.922c.103-.056.185-.136.244-.236s.09-.213.09-.337c0-.129-.031-.243-.09-.344s-.141-.18-.244-.238c-.103-.056-.22-.086-.353-.086h-1.086v1.326h1.086c.133,0,.25-.028.353-.086ZM32.506,180.435h1.167l1.444,2.185h-1.169l-1.443-2.185Z"/>
        <path class="b" d="M36.234,177.81h.984v4.809h-.984v-4.809Z"/>
        <path class="b" d="M38.762,178.961c.223-.378.527-.676.914-.894.388-.217.815-.326,1.282-.326s.895.109,1.282.326c.388.217.691.515.914.894.223.377.333.796.333,1.253s-.11.876-.333,1.253c-.223.378-.526.676-.914.894-.386.217-.815.326-1.282.326s-.894-.109-1.282-.326c-.386-.217-.691-.515-.914-.894-.221-.377-.333-.796-.333-1.253s.111-.876.333-1.253ZM39.645,181.012c.133.238.314.427.543.566.228.14.486.209.769.209.279,0,.535-.07.766-.209s.413-.329.546-.566c.133-.239.2-.505.2-.797s-.067-.558-.2-.797c-.133-.238-.314-.427-.542-.566-.229-.14-.486-.209-.77-.209-.279,0-.534.07-.766.209-.231.14-.413.329-.546.566-.133.239-.199.505-.199.797s.066.558.199.797Z"/>
        <path class="b" d="M45.612,177.81v2.92c0,.201.046.382.134.542.09.161.217.287.385.378s.361.137.581.137c.219,0,.412-.046.577-.137s.293-.217.384-.378c.093-.16.138-.341.138-.542v-2.92h.982v2.92c0,.376-.09.713-.268,1.01s-.425.53-.742.696c-.315.168-.672.251-1.071.251s-.757-.083-1.072-.251c-.317-.166-.564-.399-.742-.696s-.268-.635-.268-1.01v-2.92h.982Z"/>
        <path class="b" d="M51.249,181.661c.153.121.364.181.629.181.156,0,.294-.024.415-.075.122-.05.216-.118.282-.203.067-.085.101-.18.101-.284,0-.125-.043-.225-.127-.303s-.192-.141-.319-.188c-.129-.048-.307-.102-.537-.162-.334-.087-.609-.174-.828-.264-.217-.089-.404-.229-.56-.423-.156-.192-.233-.451-.233-.776,0-.266.078-.507.233-.726.156-.217.369-.388.639-.511.271-.123.569-.185.894-.185.33,0,.625.058.886.172.262.114.471.272.629.474s.255.433.291.694l-.989.2c-.036-.211-.129-.38-.278-.506-.149-.125-.341-.188-.574-.188-.142,0-.267.023-.374.068s-.191.107-.251.185c-.059.078-.089.168-.089.268,0,.114.04.208.119.282.081.072.183.131.306.174.123.044.295.095.515.154.344.087.625.178.845.272s.409.242.57.443c.16.201.24.474.24.817,0,.271-.081.514-.24.731-.161.219-.38.39-.66.515-.279.126-.59.189-.934.189-.518,0-.946-.121-1.284-.364-.34-.243-.541-.568-.605-.976l.989-.2c.047.22.146.39.299.513Z"/>
        <path class="b" d="M57.305,178.961c.224-.378.529-.676.914-.894s.811-.326,1.278-.326c.357,0,.686.064.986.192.299.129.557.298.769.509.213.211.377.441.491.694l-.906.35c-.119-.247-.298-.45-.537-.608-.238-.158-.506-.236-.804-.236-.279,0-.534.07-.766.209-.231.14-.413.329-.546.566-.133.239-.199.505-.199.797s.066.558.199.797c.133.238.315.427.546.566.232.14.487.209.766.209.298,0,.566-.078.804-.236.239-.158.417-.361.537-.608l.906.35c-.114.252-.278.483-.491.694-.212.211-.47.38-.769.509-.301.127-.629.192-.986.192-.467,0-.892-.109-1.278-.326s-.69-.515-.914-.894c-.224-.377-.337-.796-.337-1.253s.113-.876.337-1.253Z"/>
        <path class="b" d="M63,178.961c.223-.378.527-.676.914-.894.388-.217.815-.326,1.282-.326s.895.109,1.282.326c.388.217.691.515.914.894.223.377.333.796.333,1.253s-.11.876-.333,1.253c-.223.378-.526.676-.914.894-.386.217-.815.326-1.282.326s-.894-.109-1.282-.326c-.386-.217-.691-.515-.914-.894-.221-.377-.333-.796-.333-1.253s.111-.876.333-1.253ZM63.883,181.012c.133.238.314.427.543.566.228.14.486.209.769.209.279,0,.535-.07.766-.209s.413-.329.546-.566c.133-.239.2-.505.2-.797s-.067-.558-.2-.797c-.133-.238-.314-.427-.542-.566-.229-.14-.486-.209-.77-.209-.279,0-.534.07-.766.209-.231.14-.413.329-.546.566-.133.239-.199.505-.199.797s.066.558.199.797Z"/>
        <path class="b" d="M68.926,177.81h2.069c.334,0,.631.067.89.199.258.134.458.318.597.554.14.235.209.498.209.786,0,.293-.07.557-.209.79-.14.233-.34.415-.597.546-.259.13-.556.196-.89.196h-1.086v1.738h-.984v-4.809ZM71.348,179.922c.103-.056.185-.136.244-.236s.09-.213.09-.337c0-.129-.031-.243-.09-.344s-.141-.18-.244-.238c-.103-.056-.22-.086-.353-.086h-1.086v1.326h1.086c.133,0,.25-.028.353-.086ZM70.212,180.435h1.167l1.444,2.185h-1.169l-1.443-2.185Z"/>
        <path class="b" d="M73.942,177.81h3.202v.872h-2.218v1.099h2.15v.867h-2.15v1.099h2.218v.872h-3.202v-4.809Z"/>
        <path class="b" d="M80.553,177.81h.929v4.809h-.929v-4.809ZM80.876,177.81h.962l1.821,4.466h-.845l1.821-4.466h.907l-1.951,4.809h-.764l-1.951-4.809ZM84.937,177.81h.927v4.809h-.927v-4.809Z"/>
        <path class="b" d="M88.21,177.81v2.92c0,.201.046.382.134.542.09.161.217.287.385.378s.361.137.581.137c.219,0,.412-.046.577-.137s.293-.217.384-.378c.093-.16.138-.341.138-.542v-2.92h.982v2.92c0,.376-.09.713-.268,1.01s-.425.53-.742.696c-.315.168-.672.251-1.071.251s-.757-.083-1.072-.251c-.317-.166-.564-.399-.742-.696s-.268-.635-.268-1.01v-2.92h.982Z"/>
        <path class="b" d="M93.846,181.661c.153.121.364.181.629.181.156,0,.294-.024.415-.075.122-.05.216-.118.282-.203.067-.085.101-.18.101-.284,0-.125-.043-.225-.127-.303s-.192-.141-.319-.188c-.129-.048-.307-.102-.537-.162-.334-.087-.609-.174-.828-.264-.217-.089-.404-.229-.56-.423-.156-.192-.233-.451-.233-.776,0-.266.078-.507.233-.726.156-.217.369-.388.639-.511.271-.123.569-.185.894-.185.33,0,.625.058.886.172.262.114.471.272.629.474s.255.433.291.694l-.989.2c-.036-.211-.129-.38-.278-.506-.149-.125-.341-.188-.574-.188-.142,0-.267.023-.374.068s-.191.107-.251.185c-.059.078-.089.168-.089.268,0,.114.04.208.119.282.081.072.183.131.306.174.123.044.295.095.515.154.344.087.625.178.845.272s.409.242.57.443c.16.201.24.474.24.817,0,.271-.081.514-.24.731-.161.219-.38.39-.66.515-.279.126-.59.189-.934.189-.518,0-.946-.121-1.284-.364-.34-.243-.541-.568-.605-.976l.989-.2c.047.22.146.39.299.513Z"/>
        <path class="b" d="M97.559,177.81h.984v4.809h-.984v-4.809Z"/>
        <path class="b" d="M100.087,178.961c.224-.378.529-.676.914-.894s.811-.326,1.278-.326c.357,0,.686.064.986.192.299.129.557.298.769.509.213.211.377.441.491.694l-.906.35c-.119-.247-.298-.45-.537-.608-.238-.158-.506-.236-.804-.236-.279,0-.534.07-.766.209-.231.14-.413.329-.546.566-.133.239-.199.505-.199.797s.066.558.199.797c.133.238.315.427.546.566.232.14.487.209.766.209.298,0,.566-.078.804-.236.239-.158.417-.361.537-.608l.906.35c-.114.252-.278.483-.491.694-.212.211-.47.38-.769.509-.301.127-.629.192-.986.192-.467,0-.892-.109-1.278-.326s-.69-.515-.914-.894c-.224-.377-.337-.796-.337-1.253s.113-.876.337-1.253Z"/>
      </g>
      <path class="c" d="M342.215,124.053c-1.743-.22-3.453-.066-5.18.226-4.077.689-7.506-.469-9.813-3.991-1.289-1.967-1.789-4.295-1.948-6.649-.271-4.011.885-7.683,2.874-11.098,2.493-4.281,8.412-5.567,12.419-2.648.607.442,1.141.993,1.647,1.577v-4.398c-1.182.724-2.498,1.139-3.965,1.192-3.286.119-5.901-1.266-7.599-4.016-1.83-2.964-1.87-6.1.042-9.094.869-1.36,1.048-2.804.883-4.315-.34-3.124-.977-6.18-2.5-8.976-.37-.681-.27-1.274.114-1.894,1.008-1.626,2.631-1.865,4.634-.684,1.91,1.126,3.808.949,5.599-.222,1.947-1.273,2.519-3.162,2.124-5.387-.387-2.179-1.715-3.539-3.815-4.079-3.152-.81-6.116,1.21-6.606,4.457-.133.881-.299,1.714-1.009,2.334-.965.844-2.282,1.004-3.305.391-1.272-.763-2.131-2.635-1.815-3.96.68-2.856.12-3.942-2.542-4.93-1.103-.409-1.462-1.154-.989-2.251.74-1.718,2.088-2.696,3.946-2.768.844-.032,1.721.203,2.548.438,4.245,1.21,8.568-1.004,9.8-5.056.99-3.257-.175-6.755-2.915-8.756-2.671-1.95-6.139-1.954-8.995-.012-2.716,1.847-3.899,5.164-3.024,8.472.121.459.267.915.338,1.383.355,2.363-1.151,4.663-3.438,5.282-1.56.422-2.205.166-3.041-1.208-1.26-2.071-3.044-2.736-5.374-2.073-.553.157-1.18.243-1.74.153-1.871-.3-3.241-1.997-3.217-3.856.026-2.039,1.543-3.809,3.473-4.064.508-.067,1.026-.116,1.518-.252,2.04-.567,3.432-2.628,3.2-4.693-.252-2.242-1.841-3.826-4.02-4.006-2.412-.199-4.159.982-4.796,3.153-.454,1.549.012,2.87.795,4.168.846,1.402.599,2.937-.576,3.816-.825.617-1.433.598-2.232-.063-.457-.378-.891-.793-1.385-1.116-2.756-1.801-5.644-2.424-8.912-1.391-2.133.674-4.382,1.077-6.609,1.322-2.098.23-4.192-.095-6.026-1.332-2.068-1.394-2.048-1.898.138-3.106,4.022-2.222,5.643-6.86,3.975-11.374-1.448-3.919-6.006-6.334-10.23-5.421-4.246.918-7.163,4.49-7.217,8.839-.051,4.1,2.776,7.743,6.812,8.791.379.098.78.195,1.107.396.793.487.927,1.205.249,1.856-1.051,1.008-2.099,2.078-3.327,2.829-2.019,1.235-4.266,1.996-6.681,1.511-2.672-.536-3.375-1.494-2.6-3.912.634-1.978-.557-3.74-2.558-4.231-1.799-.442-3.607.628-4.039,2.39-.5,2.039.59,3.849,2.627,4.355.192.048.393.059.583.111,1.407.385,2.085,1.585,1.528,2.936-.326.789-.807,1.549-1.361,2.201-1.462,1.719-3.391,2.818-5.37,3.842-1.37.708-2.745,1.417-4.051,2.233-1.286.804-2.237,1.868-2.168,3.567.015.364-.268.819-.545,1.104-4.802,4.955-13.104,2.845-14.986-3.8-.226-.799-.4-1.612-.596-2.42-1.246-5.13-7.021-8.012-11.724-6.485-3.395,1.102-6.106,4.151-6.552,7.721-.464,3.721,1.359,7.497,4.5,9.291,3.342,1.908,6.629,1.668,9.929-.177,5.354-2.994,11.629-.222,13.066,5.705.244,1.006.094,1.824-.548,2.653-2.527,3.261-3.053,6.807-1.237,10.567.935,1.936,1.363,3.863,1.158,6.06-.355,3.796-2.059,6.484-5.568,8.004-.327.141-.647.298-.97.447l.003.004c.236-.026.473-.042.707-.079,6.197-.993,11.167,4.761,9.757,10.305-.251.985-.01,1.868.331,2.771,1.275,3.378,3.492,6.081,6.05,8.552,1.123,1.085,1.035,2.566-.153,3.6-.928.807-1.976.798-3.128.634-2.709-.385-5.382,1.517-5.858,4.075-.523,2.815,1.063,5.477,3.701,6.211,2.778.774,5.564-.655,6.512-3.335.397-1.124.386-2.247.049-3.382-.184-.622-.329-1.296.246-1.769.697-.573,1.429-1.132,2.223-1.551.937-.495,1.942-.352,2.559.525.553.784,1.035,1.701,1.242,2.628.378,1.694,1.29,2.642,2.996,2.903.621.095,1.23.298,1.83.494,1.038.338,1.227.666,1.089,1.758-.269,2.117-1.924,3.699-4.134,3.95-.589.067-1.184.104-1.766.21-5.741,1.039-8.344,7.642-4.881,12.345.279.378.539.795.696,1.233.487,1.355,1.405,2.375,2.457,3.294,2.989,2.611,7.426,2.984,10.846.923,3.461-2.085,5.183-6.104,4.284-9.996-.469-2.03-1.477-3.721-3.066-5.093-2.08-1.796-2.414-4.193-.92-6.105.741-.949,1.164-1.04,2.195-.39,1.725,1.088,3.623,1.525,5.636,1.618,1.497.069,2.888-.241,4.262-.837,1.093-.474,1.491-.18,1.697,1.002.262,1.51-.577,3.283-1.901,4.049-.478.277-.966.548-1.401.885-1.952,1.513-2.24,4.163-.701,6.241,1.338,1.807,4.214,2.25,6.075.937,2.58-1.82,2.603-5.417.081-7.411-.575-.454-1.153-.986-1.515-1.608-.536-.921-.204-2.142.55-2.958.691-.747,1.421-.447,2.181-.173,1.544.556,3.124.816,4.778.64,1.035-.111,1.391.43.973,1.369-.111.25-.266.491-.444.699-1.012,1.182-1.195,2.576-.944,4.026.35,2.025,1.57,3.322,3.557,3.868,1.928.529,4.154-.154,5.264-1.595,2.292-2.974,1.181-6.708-2.368-7.964-.223-.079-.457-.146-.659-.265-.74-.438-.913-.979-.346-1.649.729-.862,1.491-1.768,2.422-2.374,2.904-1.892,6.242-2.419,9.618-2.66,2.903-.208,5.448-.991,7.018-3.698.545-.939,1.522-1.079,2.469-1.188,6.11-.7,11.193,4.337,10.554,10.47-.251,2.413.037,4.732.948,6.982,1.864,4.6,6.819,8.414,12.988,8.227.485-.015.962-.059,1.432-.124v-26.828ZM315.735,113.552c-4.743,5.907-10.765,9.983-17.895,12.396-4.156,1.406-8.378,2.659-12.87,2.411-6.932-.279-13.492-1.892-19.541-5.459-6.191-3.651-10.996-8.63-14.475-14.869-2.79-5.003-4.451-10.387-4.771-16.137-.431-7.732,1.186-15.043,4.89-21.824,3.607-6.605,8.718-11.789,15.343-15.451,6.843-3.783,14.182-5.387,21.939-4.826,7.215.522,13.835,2.911,19.718,7.16,9.548,6.896,15.032,16.256,16.25,27.937,1.113,10.677-1.846,20.264-8.589,28.662Z"/>
    </g>
  </g>
</svg>