<?xml version="1.0" encoding="UTF-8"?>
<svg id="_레이어_1" xmlns="http://www.w3.org/2000/svg" version="1.1" viewBox="0 0 45.35 24.13">
  <!-- Generator: Adobe Illustrator 29.4.0, SVG Export Plug-In . SVG Version: 2.1.0 Build 152)  -->
  <defs>
    <style>
      .st0 {
        fill: #fff;
      }
    </style>
  </defs>
  <g>
    <path class="st0" d="M5.85,2.12c0,.08-.03.15-.08.2-.05.06-.12.08-.2.08-.16,0-.4.01-.71.04-.43.06-.82.19-1.17.4-.45.26-.67.58-.67.96,0,.46.47.77,1.41.91.08.01.14.05.19.11.05.06.08.13.08.2,0,.09-.04.17-.11.23s-.15.09-.25.07c-1.32-.19-1.97-.67-1.97-1.42,0-.33.12-.63.37-.91.09-.1.14-.19.14-.25s-.05-.09-.16-.09h-.11c-.4.05-.95.13-1.65.25-.09.02-.17,0-.25-.07s-.11-.14-.11-.23c0-.08.03-.14.08-.2s.11-.09.19-.1c.05,0,.4-.05,1.05-.13.42-.05.73-.18.95-.4.51-.5,1-1.05,1.49-1.65.06-.08.14-.12.24-.12.09,0,.16.03.22.09.06.06.09.13.09.22,0,.07-.03.14-.09.21-.29.34-.64.71-1.03,1.12-.07.07-.1.13-.1.19,0,.11.08.15.25.13.34-.03.88-.08,1.61-.14.08,0,.16.02.22.08s.09.13.09.21h0ZM2.54,1.13c0,.09-.03.16-.09.22-.06.06-.14.09-.23.09-.13,0-.22-.05-.28-.16-.12-.21-.28-.43-.46-.67-.04-.05-.06-.11-.06-.18,0-.08.03-.16.09-.22.06-.06.14-.09.22-.09.1,0,.18.04.25.12.23.28.4.51.52.71.03.05.04.11.04.16v.02Z"/>
    <path class="st0" d="M12.42,3.88c0,.08-.03.15-.09.21-.47.5-.86.74-1.18.74-.29,0-.48-.11-.58-.34-.06-.14-.09-.36-.09-.66,0-.24.01-.61.04-1.1.03-.49.04-.86.04-1.1,0-.21-.07-.32-.22-.32-.29,0-.72.32-1.29.95-.2.23-.3.49-.3.78,0,.89-.01,1.53,0,1.9,0,.08-.03.16-.09.22s-.14.09-.23.09c-.08,0-.16-.03-.22-.09s-.09-.14-.09-.22c0,.08,0-.25.01-1.01,0-.15-.04-.23-.13-.23-.06,0-.12.04-.18.13-.06.08-.19.28-.38.59-.06.09-.15.13-.26.13-.08,0-.16-.03-.22-.09s-.09-.13-.09-.21.03-.15.09-.23c.23-.31.55-.74.98-1.3.14-.18.22-.38.22-.59,0-.11-.02-.19-.08-.24s-.14-.07-.25-.05c-.01,0-.21.04-.6.11-.11.02-.19,0-.26-.07s-.1-.15-.1-.24c0-.16.09-.26.26-.29.06,0,.32-.05.76-.11.2-.03.3-.14.3-.33l.02-.61c0-.08.04-.16.09-.21S8.43,0,8.51,0s.16.03.23.09c.06.06.09.14.09.23l-.03.92c0,.18.04.27.13.27.06,0,.13-.04.21-.11.52-.51.98-.76,1.35-.76.46,0,.69.27.69.8,0,.25-.02.62-.05,1.11s-.05.86-.05,1.1c0,.17,0,.28.01.32.02.11.08.17.17.17.15,0,.35-.15.6-.45.06-.07.13-.1.23-.1.08,0,.16.03.22.09s.09.13.09.22l.02-.02Z"/>
    <path class="st0" d="M18.18,2.12c0,.08-.03.15-.08.2s-.12.08-.2.09c-.18,0-.42.02-.71.04-.44.06-.83.2-1.17.4-.45.26-.67.58-.67.96,0,.45.47.76,1.41.91.18.03.26.13.26.31,0,.09-.04.17-.11.23s-.15.09-.25.07c-1.31-.18-1.97-.66-1.97-1.42,0-.34.12-.64.37-.91.1-.1.15-.19.15-.25s-.05-.09-.16-.09h-.11c-.71.1-1.26.18-1.65.25-.09.02-.17,0-.25-.07s-.11-.14-.11-.23c0-.08.03-.14.08-.2s.11-.09.19-.1c.42-.05.77-.09,1.05-.13.42-.06.74-.19.95-.4.63-.63,1.13-1.18,1.49-1.65.06-.08.14-.12.24-.12.09,0,.16.03.22.09.06.06.09.13.09.22,0,.07-.03.14-.09.21-.1.12-.44.49-1.03,1.12-.07.07-.1.13-.1.19,0,.11.08.15.25.13.34-.03.87-.07,1.61-.14.08,0,.16.02.22.08s.09.13.09.21h0ZM14.87,1.13c0,.09-.03.16-.09.22s-.14.09-.23.09c-.13,0-.22-.05-.28-.16-.12-.21-.28-.43-.46-.67-.04-.05-.06-.11-.06-.18,0-.08.03-.16.09-.22s.14-.09.22-.09c.1,0,.18.04.25.12.24.3.41.54.52.71.03.05.04.1.04.16v.02ZM18,1.41c0,.06-.02.12-.07.16s-.1.07-.17.07c-.09,0-.19-.08-.32-.23-.09-.12-.18-.24-.26-.35-.05-.05-.07-.1-.07-.16,0-.16.08-.24.24-.24.06,0,.12.03.18.09.17.19.31.37.42.53.03.04.04.09.04.13h0ZM18.74,1.06c0,.06-.02.12-.07.16-.05.05-.1.07-.17.07-.09,0-.16-.04-.21-.11-.13-.2-.26-.36-.37-.48-.04-.05-.06-.1-.06-.15,0-.16.08-.24.24-.24.05,0,.11.03.17.09.15.15.29.33.43.53.03.06.04.1.04.13Z"/>
    <path class="st0" d="M25.04,3.88c0,.08-.03.15-.09.21-.47.5-.86.74-1.18.74-.29,0-.48-.11-.58-.34-.06-.14-.09-.36-.09-.66,0-.24.01-.61.04-1.1.03-.49.04-.86.04-1.1,0-.21-.07-.32-.22-.32-.29,0-.72.32-1.29.95-.2.23-.3.49-.3.78,0,.89-.01,1.53,0,1.9,0,.08-.03.16-.09.22s-.14.09-.23.09c-.08,0-.16-.03-.22-.09s-.09-.14-.09-.22c0,.08,0-.25.01-1.01,0-.15-.04-.23-.13-.23-.06,0-.12.04-.18.13-.06.08-.19.28-.38.59-.06.09-.15.13-.26.13-.08,0-.16-.03-.22-.09s-.09-.13-.09-.21.03-.15.09-.23c.23-.31.55-.74.98-1.3.14-.18.22-.38.22-.59,0-.11-.02-.19-.08-.24s-.14-.07-.25-.05c-.01,0-.21.04-.6.11-.11.02-.19,0-.26-.07s-.1-.15-.1-.24c0-.16.09-.26.26-.29.06,0,.32-.05.76-.11.2-.03.3-.14.3-.33l.02-.61c0-.08.04-.16.09-.21S21.05,0,21.13,0s.16.03.23.09c.06.06.09.14.09.23l-.03.92c0,.18.04.27.13.27.06,0,.13-.04.21-.11.52-.51.98-.76,1.35-.76.46,0,.69.27.69.8,0,.25-.02.62-.05,1.11-.03.49-.05.86-.05,1.1,0,.17,0,.28.01.32.02.11.08.17.17.17.15,0,.35-.15.6-.45.06-.07.13-.1.23-.1.08,0,.16.03.22.09s.09.13.09.22l.02-.02Z"/>
    <path class="st0" d="M31.1,2.68c0,1.28-.65,2.07-1.95,2.35h-.07c-.08,0-.16-.03-.22-.09s-.09-.13-.09-.22c0-.17.08-.27.23-.31.97-.24,1.46-.83,1.46-1.75,0-.48-.13-.87-.39-1.16-.1-.11-.22-.21-.36-.29-.16-.09-.31-.14-.44-.14-.18,0-.29.11-.33.32-.16.92-.35,1.65-.57,2.21-.14.35-.28.62-.41.79-.21.27-.46.41-.75.41-.38,0-.69-.19-.92-.57-.2-.33-.3-.69-.3-1.1,0-.78.26-1.43.78-1.94s1.17-.77,1.95-.77c.73,0,1.31.19,1.73.57.44.4.66.96.66,1.68h-.01ZM28.29,1.41v-.09c0-.16-.07-.23-.21-.23-.05,0-.11,0-.16.03-.39.13-.7.39-.95.75-.24.37-.36.79-.36,1.26,0,.26.06.49.18.69.12.2.26.3.41.3.18,0,.37-.25.58-.76.17-.43.34-1.08.51-1.95Z"/>
  </g>
  <g>
    <path class="st0" d="M3.75,7.68v4.33c0,2.66-1.28,3.82-3.75,3.95v-2.72c.9-.09,1.12-.06,1.12-1.07v-4.49h2.64,0ZM3.2,8.22h-1.54v3.95c0,.95-.22,1.43-1.13,1.55v1.64c1.75-.19,2.67-1.19,2.67-3.35,0,0,0-3.79,0-3.79ZM7.63,12.17c0,1.01.23.97,1.13,1.07v2.72c-2.48-.13-3.75-1.29-3.75-3.95v-4.33h2.63v4.49h-.01ZM8.2,15.36v-1.64c-.9-.12-1.13-.6-1.13-1.55v-3.95h-1.54v3.79c0,2.16.93,3.16,2.67,3.35Z"/>
    <path class="st0" d="M9.84,10.51h7.63v2.74h-7.63s0-2.74,0-2.74ZM16.93,11.05h-6.55v1.66h6.55v-1.66Z"/>
    <path class="st0" d="M21.83,13.15v2.75h-2.71V7.68h2.71v2.35c0,.4.86.83,2.38.83h2.38v2.63h-2.38c-.76,0-1.6-.08-2.38-.35h0ZM26.05,11.41h-1.83c-1.24,0-2.93-.39-2.93-1.3v-1.89h-1.62v7.13h1.62v-3.02c.76.41,1.77.62,2.93.62h1.83v-1.54ZM24.01,10.27v-2.88h2.68v2.88h-2.68ZM24.56,7.94v.7h1.59v-.7h-1.59ZM26.14,9.03h-1.59v.7h1.59s0-.7,0-.7Z"/>
    <path class="st0" d="M27.93,13.18h5.16v-2.39c0-.11-.05-.17-.21-.17h-4.95v-2.63h4.82c1.81,0,2.99.75,2.99,2.79v5.02h-7.81v-2.62ZM35.19,10.77c0-1.53-.71-2.25-2.44-2.25h-4.28v1.54h4.41c.51,0,.76.25.76.71v2.95h-5.17v1.52h6.72s0-4.47,0-4.47Z"/>
    <path class="st0" d="M42.63,10.58h-5.64v-2.61h8.36v2.67c0,1.94-1.12,3.01-3.02,3.01h-.62c-.15,1-.73,1.49-1.48,1.85-.79.37-1.81.4-2.68.4h-.55v-2.66h.78c1.14,0,1.28-.1,1.28-.6v-1.56h3.09c.36,0,.49-.11.49-.36v-.14h0ZM44.8,8.52h-7.26v1.54h5.65v.59c0,.6-.25.96-.94.96h-2.66v1.05c0,.94-.4,1.14-1.73,1.14h-.33v1.56h.46c1.83,0,3.16-.37,3.2-2.25h1.13c1.58,0,2.47-.78,2.47-2.46v-2.13h.01Z"/>
  </g>
  <g>
    <path class="st0" d="M3,22.95c0,.07-.03.13-.08.18-.05.05-.11.08-.18.08-.09,0-.15-.03-.2-.1-.07-.11-.14-.16-.23-.16-.03,0-.06,0-.1.02-.37.13-.79.26-1.27.39h-.06c-.08,0-.14-.03-.19-.08-.05-.05-.08-.12-.08-.19,0-.1.03-.17.09-.21.08-.06.13-.1.14-.11.05-.04.08-.09.09-.15.18-.61.31-1.12.4-1.53v-.08c0-.13-.08-.2-.23-.2h-.23c-.08,0-.14-.03-.19-.08s-.08-.12-.08-.2.03-.14.08-.19.12-.08.19-.08h1.58c.08,0,.14.03.2.08.05.05.08.12.08.19s-.03.14-.08.2-.12.08-.2.08h-.25c-.19,0-.3.09-.35.27-.11.44-.22.85-.33,1.24-.01.04-.02.08-.02.11,0,.11.05.16.14.16.03,0,.15-.03.36-.1.12-.04.18-.1.18-.2,0-.04,0-.08-.03-.12,0-.02-.07-.16-.2-.43-.02-.03-.03-.06-.03-.1,0-.06.02-.12.07-.17s.1-.07.17-.07c.1,0,.17.04.21.13.22.44.41.87.57,1.3.01.03.02.07.02.09l.04.03ZM2.64,19.26c0,.08-.03.14-.08.2-.05.05-.12.08-.2.08h-1.34c-.08,0-.14-.03-.19-.08s-.08-.12-.08-.2.03-.14.08-.19.12-.08.19-.08h1.34c.08,0,.14.03.2.08.05.05.08.12.08.19ZM6.31,23.29c-.03.31-.09.5-.2.59s-.33.13-.65.13h-.62c-.23,0-.38-.03-.45-.1-.09-.07-.13-.22-.13-.44v-1.53c0-.15-.05-.22-.16-.22s-.17.07-.18.21c-.03.42-.09.75-.17,1.01-.12.36-.3.68-.56.96-.06.07-.14.11-.22.11s-.15-.03-.2-.08c-.05-.05-.08-.12-.08-.19,0-.08.02-.14.06-.18.24-.25.42-.53.52-.84.06-.18.1-.44.14-.76.02-.16-.03-.24-.15-.25-.23-.01-.35-.17-.35-.46v-1.61c0-.34.17-.52.52-.52h.19c.2,0,.32-.07.37-.21.03-.08.05-.15.06-.22.04-.15.13-.22.28-.22.08,0,.15.03.2.08.05.06.08.13.08.22v.16c0,.13.07.19.21.19h.73c.34,0,.52.17.52.52v1.56c0,.35-.17.52-.52.52h-.55c-.17,0-.25.08-.25.25v1.32c0,.11.01.18.04.2.03.03.1.04.21.04h.38c.16,0,.27-.01.32-.04.07-.05.12-.14.14-.28.01-.08.06-.14.13-.17-.03,0-.05-.01-.07-.03-.09-.06-.16-.09-.2-.08-.18.05-.41.11-.71.18-.06.01-.11,0-.16-.04s-.07-.09-.07-.15.03-.11.08-.16.08-.09.09-.13c.08-.26.13-.5.17-.72.02-.1.08-.15.18-.15.06,0,.11.02.15.07s.05.1.04.16c-.03.13-.07.3-.13.49,0,.02-.01.04-.01.06,0,.08.05.12.16.09h.03c.08-.02.11-.06.11-.13,0-.03,0-.05-.02-.08-.03-.08-.05-.13-.05-.15,0-.12.06-.18.18-.18.08,0,.14.04.18.13.1.18.18.37.26.55,0,.03.01.06.01.08,0,.08-.03.13-.09.17.15.02.22.11.21.26h0ZM4.21,19.98v-.13c0-.15-.07-.22-.22-.22h-.3c-.16,0-.25.08-.25.25v.11c0,.15.07.22.22.22h.33c.15,0,.22-.07.22-.22h0ZM4.21,21.01v-.13c0-.15-.07-.22-.22-.22h-.33c-.15,0-.22.07-.22.22v.1c0,.16.08.25.25.25h.3c.15,0,.22-.07.22-.22ZM5.52,19.98v-.11c0-.16-.08-.25-.25-.25h-.34c-.15,0-.22.07-.22.22v.13c0,.15.07.22.22.22h.37c.15,0,.22-.07.22-.22h0ZM5.52,20.99v-.1c0-.15-.07-.22-.22-.22h-.37c-.15,0-.22.07-.22.22v.13c0,.15.07.22.22.22h.34c.16,0,.25-.08.25-.25Z"/>
    <path class="st0" d="M11.99,20.89c0,.13-.06.21-.18.26-.28.12-.55.24-.79.36-.17.08-.28.17-.32.26-.03.07-.04.2-.04.4v.4c0,.08-.03.15-.09.21s-.13.08-.21.08-.15-.03-.21-.08c-.06-.06-.08-.13-.08-.21v-.24c0-.15-.05-.22-.16-.22-.05,0-.1.02-.15.05-.51.32-.76.59-.76.81,0,.13.09.22.26.28.17.06.47.08.88.08.33,0,.76-.04,1.3-.11.09-.01.16.01.23.07s.1.13.1.22c0,.08-.03.14-.08.2s-.11.09-.19.1c-.48.05-.95.08-1.41.08s-.85-.04-1.1-.12c-.43-.14-.64-.39-.64-.76,0-.43.46-.92,1.39-1.47.15-.09.23-.18.23-.26,0-.11-.09-.16-.26-.16-.24,0-.55.12-.93.35-.3.19-.57.4-.8.63l-.16.2c-.07.06-.14.09-.22.09s-.15-.03-.21-.09-.08-.13-.08-.21.02-.14.07-.2c.44-.52.8-1.05,1.1-1.58.03-.05.04-.1.04-.15,0-.11-.08-.16-.23-.16h-.61c-.08,0-.14-.03-.19-.08s-.08-.12-.08-.2.03-.15.09-.2.12-.08.2-.08h.86c.25,0,.42-.12.5-.35l.13-.33c.05-.13.14-.2.28-.2.08,0,.15.03.21.09.06.06.08.13.08.21,0,.04,0,.07-.02.11-.02.05-.03.08-.04.09-.02.05-.03.09-.03.13,0,.12.08.17.23.16.16-.02.46-.06.91-.13.08,0,.16,0,.23.07.07.06.1.13.1.21,0,.17-.08.26-.25.28-.42.05-.8.09-1.13.12-.18.02-.32.06-.42.12s-.18.17-.27.32c0,0-.03.05-.06.1-.05.08-.07.14-.07.2s.04.09.11.09c.05,0,.11,0,.18-.04.22-.08.43-.13.61-.13.25,0,.45.08.58.25.09.11.18.17.27.17.05,0,.1,0,.15-.04l.76-.37s.08-.03.13-.03c.08,0,.15.03.2.08s.08.13.08.21l-.02.06Z"/>
    <path class="st0" d="M18.56,22.29c0,.07-.02.12-.07.17s-.1.07-.17.07h-1.41c-.11,0-.16.04-.16.11,0,.05.03.09.09.13.38.22.85.44,1.43.65.11.04.17.12.17.25,0,.08-.03.14-.08.19s-.11.08-.19.08c-.04,0-.07,0-.1-.02-.68-.28-1.26-.58-1.75-.91-.05-.03-.09-.05-.13-.05-.09,0-.13.06-.13.19v.69c0,.08-.03.15-.08.2-.06.05-.12.08-.2.08s-.14-.03-.2-.08c-.06-.05-.08-.12-.08-.2v-.67c0-.13-.04-.19-.13-.19-.04,0-.09.02-.14.05-.48.33-1.06.63-1.73.89-.03.01-.06.02-.1.02-.07,0-.13-.03-.19-.08-.05-.05-.08-.12-.08-.19,0-.13.06-.21.18-.25.54-.2,1.01-.41,1.41-.64.07-.04.1-.08.1-.13,0-.07-.05-.1-.16-.1h-1.39c-.06,0-.12-.02-.17-.07-.05-.05-.07-.1-.07-.17,0-.06.02-.12.07-.17s.1-.07.17-.07h2.01c.15,0,.22-.05.22-.16s-.07-.15-.22-.15h-1.05c-.34,0-.5-.17-.5-.5v-.72c0-.11-.04-.16-.11-.16-.04,0-.08.02-.13.06l-.04.04s-.1.06-.18.06-.14-.03-.19-.08-.08-.12-.08-.19c0-.08.03-.15.09-.21.52-.45.91-.92,1.17-1.39.05-.09.13-.14.24-.14.08,0,.14.03.19.08.05.05.08.12.08.19,0,.02,0,.05-.02.08-.02.05-.03.09-.03.13,0,.09.06.13.18.13h.52c.19,0,.33-.08.42-.23l.14-.25c.06-.1.14-.15.25-.15.18,0,.27.09.27.26,0,.03,0,.07-.03.12-.02.05-.03.08-.03.1,0,.1.07.15.2.15h1.44c.06,0,.12.02.16.07.05.05.07.1.07.16,0,.07-.02.12-.07.17-.05.05-.1.07-.16.07h-1.65c-.15,0-.22.05-.22.15s.07.15.22.15h1.38c.13,0,.2.07.2.2,0,.05-.02.1-.06.14-.04.04-.08.06-.14.06h-1.38c-.15,0-.22.05-.22.15s.07.15.22.15h1.38c.13,0,.2.07.2.2s-.07.2-.2.2h-1.38c-.15,0-.22.05-.22.15s.07.16.22.16h1.76c.15,0,.22.07.22.22,0,.16-.07.23-.22.23h-1.88c-.15,0-.22.05-.22.15s.07.16.22.16h2.04c.06,0,.12.02.17.07.05.05.07.1.07.17l-.03-.03ZM15.61,19.74c0-.1-.07-.15-.22-.15h-.88c-.15,0-.22.05-.22.15s.07.15.22.15h.88c.15,0,.22-.05.22-.15ZM15.61,20.44c0-.11-.07-.16-.22-.16h-.88c-.15,0-.22.05-.22.16s.07.16.22.16h.88c.15,0,.22-.05.22-.16ZM15.61,21.13c0-.11-.07-.16-.22-.16h-.88c-.15,0-.22.05-.22.16,0,.12.06.18.18.18h.93c.15,0,.22-.06.22-.17h-.01Z"/>
    <path class="st0" d="M24.33,23.12c0,.09-.03.16-.09.22s-.14.09-.22.09c-.06,0-.11-.01-.16-.04-.42-.25-.79-.43-1.12-.56-.04-.02-.08-.03-.11-.03-.12,0-.19.08-.21.25-.03.25-.12.44-.25.56-.21.19-.59.28-1.13.28-.34,0-.63-.07-.86-.2-.28-.16-.42-.41-.42-.73,0-.37.17-.63.52-.8.26-.13.6-.19,1.01-.19h.21c.22,0,.33-.08.33-.28v-.18c0-.21-.11-.31-.32-.31-.45.01-.87.02-1.29.01-.08,0-.14-.03-.19-.08-.05-.06-.08-.12-.08-.2s.03-.14.08-.19c.06-.05.12-.08.2-.08h1.28c.21,0,.31-.11.31-.32v-.03c0-.21-.11-.32-.33-.31-.51.02-.99.03-1.44,0-.08,0-.14-.04-.2-.09s-.08-.12-.08-.2.03-.15.09-.2.13-.08.21-.08c.47,0,.95,0,1.44,0,.21,0,.31-.1.31-.3v-.28c0-.08.03-.16.09-.22.06-.06.13-.09.21-.09s.16.03.21.09.09.13.09.22v.21c0,.22.11.32.33.3.32-.03.68-.08,1.06-.13.08,0,.16,0,.22.07s.1.13.1.21c0,.16-.08.25-.25.27-.45.06-.84.1-1.15.13-.2.02-.3.13-.3.33v.02c0,.22.11.32.33.3s.53-.06.93-.12c.08,0,.16,0,.23.07s.1.13.1.21c0,.16-.08.26-.24.28-.34.05-.68.09-1.04.12-.2.02-.3.13-.3.33v.28c0,.23.12.38.35.46.43.14.9.34,1.41.61.11.06.16.15.16.28l-.03.03ZM21.8,22.87c.03-.21-.05-.32-.25-.34-.09,0-.18-.01-.27-.01-.61,0-.91.15-.91.44,0,.12.06.21.17.28.12.07.27.11.46.11.28,0,.48-.03.59-.1.11-.07.18-.19.21-.37h0Z"/>
    <path class="st0" d="M30.16,21.54c0,.6-.28,1.07-.84,1.41-.42.25-.97.42-1.66.52-.09.01-.17-.01-.23-.07s-.1-.14-.1-.22c0-.07.03-.14.08-.19s.11-.09.18-.1c1.29-.17,1.94-.62,1.94-1.34,0-.51-.34-.76-1.01-.76-.54,0-1.4.16-2.58.47-.03,0-.06.01-.08.01-.08,0-.15-.03-.21-.09s-.09-.13-.09-.22c0-.16.08-.26.24-.3.41-.1.8-.19,1.17-.26.67-.13,1.2-.2,1.58-.2.47,0,.84.09,1.11.27.34.23.51.58.51,1.07h-.01Z"/>
    <path class="st0" d="M36.13,19.39c0,.17-.11.27-.34.3-.63.1-1.2.36-1.69.78-.49.43-.74.88-.74,1.35,0,.66.54,1.09,1.63,1.3.18.03.27.14.27.32,0,.1-.04.18-.12.25s-.17.09-.27.08c-.61-.11-1.1-.29-1.47-.57-.46-.34-.69-.78-.69-1.34,0-.45.15-.86.46-1.24.12-.15.26-.29.4-.41.13-.11.19-.2.19-.27,0-.1-.11-.14-.32-.13-.66.06-1.36.13-2.1.22-.09,0-.17,0-.24-.08-.07-.06-.1-.14-.1-.23,0-.08.03-.15.08-.21s.12-.09.2-.1c.76-.08,2.25-.19,4.46-.34.11,0,.21.02.28.07.07.06.11.13.11.22v.03Z"/>
  </g>
</svg>